# Blender 4.5.2 LTS
# www.blender.org
mtllib Bacteria.mtl
o Cube
v 0.000000 -2.115777 -0.104485
v 0.000000 -1.224574 -1.000000
v 0.000000 -2.085411 -0.336261
v 0.000000 -1.996379 -0.552242
v 0.000000 -1.854750 -0.737710
v 0.000000 -1.670176 -0.880024
v 0.000000 -1.455235 -0.969486
v 0.000000 2.115777 -0.104485
v 0.000000 1.224574 -1.000000
v 0.000000 2.085411 -0.336261
v 0.000000 1.996379 -0.552242
v 0.000000 1.854750 -0.737710
v 0.000000 1.670176 -0.880024
v 0.000000 1.455235 -0.969486
v 0.020384 -2.115777 -0.102477
v 0.195090 -1.224574 -0.980785
v 0.065601 -2.085411 -0.329800
v 0.107737 -1.996379 -0.541631
v 0.143920 -1.854750 -0.723535
v 0.171684 -1.670176 -0.863114
v 0.189137 -1.455235 -0.950858
v 0.020384 2.115777 -0.102477
v 0.195090 1.224574 -0.980785
v 0.065601 2.085411 -0.329800
v 0.107737 1.996379 -0.541631
v 0.143920 1.854750 -0.723535
v 0.171684 1.670176 -0.863114
v 0.189137 1.455235 -0.950858
v 0.039985 -2.115777 -0.096531
v 0.382683 -1.224574 -0.923880
v 0.128682 -2.085411 -0.310665
v 0.211334 -1.996379 -0.510205
v 0.282309 -1.854750 -0.681555
v 0.336770 -1.670176 -0.813036
v 0.371006 -1.455235 -0.895688
v 0.039985 2.115777 -0.096531
v 0.382683 1.224574 -0.923880
v 0.128682 2.085411 -0.310665
v 0.211334 1.996379 -0.510205
v 0.282309 1.854750 -0.681555
v 0.336770 1.670176 -0.813036
v 0.371006 1.455235 -0.895688
v 0.058049 -2.115777 -0.086876
v 0.555570 -1.224574 -0.831470
v 0.186817 -2.085411 -0.279591
v 0.306810 -1.996379 -0.459173
v 0.409850 -1.854750 -0.613383
v 0.488915 -1.670176 -0.731713
v 0.538618 -1.455235 -0.806098
v 0.058049 2.115777 -0.086876
v 0.555570 1.224574 -0.831470
v 0.186817 2.085411 -0.279591
v 0.306810 1.996379 -0.459173
v 0.409850 1.854750 -0.613383
v 0.488915 1.670176 -0.731713
v 0.538618 1.455235 -0.806098
v 0.073882 -2.115777 -0.073882
v 0.707107 -1.224574 -0.707107
v 0.237773 -2.085411 -0.237773
v 0.390494 -1.996379 -0.390494
v 0.521639 -1.854750 -0.521639
v 0.622271 -1.670176 -0.622271
v 0.685530 -1.455235 -0.685530
v 0.073882 2.115777 -0.073882
v 0.707107 1.224574 -0.707107
v 0.237773 2.085411 -0.237773
v 0.390494 1.996379 -0.390494
v 0.521639 1.854750 -0.521639
v 0.622271 1.670176 -0.622271
v 0.685530 1.455235 -0.685530
v 0.086876 -2.115777 -0.058049
v 0.831470 -1.224574 -0.555570
v 0.279591 -2.085411 -0.186817
v 0.459173 -1.996379 -0.306810
v 0.613383 -1.854750 -0.409850
v 0.731713 -1.670176 -0.488915
v 0.806098 -1.455235 -0.538618
v 0.086876 2.115777 -0.058049
v 0.831470 1.224574 -0.555570
v 0.279591 2.085411 -0.186817
v 0.459173 1.996379 -0.306810
v 0.613383 1.854750 -0.409850
v 0.731713 1.670176 -0.488915
v 0.806098 1.455235 -0.538618
v 0.096531 -2.115777 -0.039985
v 0.923880 -1.224574 -0.382683
v 0.310665 -2.085411 -0.128682
v 0.510205 -1.996379 -0.211334
v 0.681555 -1.854750 -0.282309
v 0.813036 -1.670176 -0.336770
v 0.895688 -1.455235 -0.371006
v 0.096531 2.115777 -0.039985
v 0.923880 1.224574 -0.382683
v 0.310665 2.085411 -0.128682
v 0.510205 1.996379 -0.211334
v 0.681555 1.854750 -0.282309
v 0.813036 1.670176 -0.336770
v 0.895688 1.455235 -0.371006
v 0.102477 -2.115777 -0.020384
v 0.980785 -1.224574 -0.195090
v 0.329800 -2.085411 -0.065601
v 0.541631 -1.996379 -0.107737
v 0.723535 -1.854750 -0.143920
v 0.863114 -1.670176 -0.171684
v 0.950858 -1.455235 -0.189137
v 0.102477 2.115777 -0.020384
v 0.980785 1.224574 -0.195090
v 0.329800 2.085411 -0.065601
v 0.541631 1.996379 -0.107737
v 0.723535 1.854750 -0.143920
v 0.863114 1.670176 -0.171684
v 0.950858 1.455235 -0.189137
v 0.104485 -2.115777 0.000000
v 1.000000 -1.224574 0.000000
v 0.336261 -2.085411 0.000000
v 0.552242 -1.996379 0.000000
v 0.737710 -1.854750 0.000000
v 0.880024 -1.670176 0.000000
v 0.969486 -1.455235 0.000000
v 0.104485 2.115777 0.000000
v 1.000000 1.224574 0.000000
v 0.336261 2.085411 0.000000
v 0.552242 1.996379 0.000000
v 0.737710 1.854750 0.000000
v 0.880024 1.670176 0.000000
v 0.969486 1.455235 0.000000
v 0.102477 -2.115777 0.020384
v 0.980785 -1.224574 0.195090
v 0.329800 -2.085411 0.065601
v 0.541631 -1.996379 0.107737
v 0.723535 -1.854750 0.143920
v 0.863114 -1.670176 0.171684
v 0.950858 -1.455235 0.189137
v 0.102477 2.115777 0.020384
v 0.980785 1.224574 0.195090
v 0.329800 2.085411 0.065601
v 0.541631 1.996379 0.107737
v 0.723535 1.854750 0.143920
v 0.863114 1.670176 0.171684
v 0.950858 1.455235 0.189137
v 0.096531 -2.115777 0.039985
v 0.923880 -1.224574 0.382683
v 0.310665 -2.085411 0.128682
v 0.510205 -1.996379 0.211334
v 0.681555 -1.854750 0.282309
v 0.813036 -1.670176 0.336770
v 0.895688 -1.455235 0.371006
v 0.096531 2.115777 0.039985
v 0.923880 1.224574 0.382683
v 0.310665 2.085411 0.128682
v 0.510205 1.996379 0.211334
v 0.681555 1.854750 0.282309
v 0.813036 1.670176 0.336770
v 0.895688 1.455235 0.371006
v 0.086876 -2.115777 0.058049
v 0.831470 -1.224574 0.555570
v 0.279591 -2.085411 0.186817
v 0.459173 -1.996379 0.306810
v 0.613383 -1.854750 0.409850
v 0.731713 -1.670176 0.488915
v 0.806098 -1.455235 0.538618
v 0.086876 2.115777 0.058049
v 0.831470 1.224574 0.555570
v 0.279591 2.085411 0.186817
v 0.459173 1.996379 0.306810
v 0.613383 1.854750 0.409850
v 0.731713 1.670176 0.488915
v 0.806098 1.455235 0.538618
v 0.073882 -2.115777 0.073882
v 0.707107 -1.224574 0.707107
v 0.237773 -2.085411 0.237773
v 0.390494 -1.996379 0.390494
v 0.521639 -1.854750 0.521639
v 0.622271 -1.670176 0.622271
v 0.685530 -1.455235 0.685530
v 0.073882 2.115777 0.073882
v 0.707107 1.224574 0.707107
v 0.237773 2.085411 0.237773
v 0.390494 1.996379 0.390494
v 0.521639 1.854750 0.521639
v 0.622271 1.670176 0.622271
v 0.685530 1.455235 0.685530
v 0.058049 -2.115777 0.086876
v 0.555570 -1.224574 0.831470
v 0.186817 -2.085411 0.279591
v 0.306810 -1.996379 0.459173
v 0.409850 -1.854750 0.613383
v 0.488915 -1.670176 0.731713
v 0.538618 -1.455235 0.806098
v 0.058049 2.115777 0.086876
v 0.555570 1.224574 0.831470
v 0.186817 2.085411 0.279591
v 0.306810 1.996379 0.459173
v 0.409850 1.854750 0.613383
v 0.488915 1.670176 0.731713
v 0.538618 1.455235 0.806098
v 0.039985 -2.115777 0.096531
v 0.382683 -1.224574 0.923880
v 0.128682 -2.085411 0.310665
v 0.211334 -1.996379 0.510205
v 0.282309 -1.854750 0.681555
v 0.336770 -1.670176 0.813036
v 0.371006 -1.455235 0.895688
v 0.039985 2.115777 0.096531
v 0.382683 1.224574 0.923880
v 0.128682 2.085411 0.310665
v 0.211334 1.996379 0.510205
v 0.282309 1.854750 0.681555
v 0.336770 1.670176 0.813036
v 0.371006 1.455235 0.895688
v 0.020384 -2.115777 0.102477
v 0.195090 -1.224574 0.980785
v 0.065601 -2.085411 0.329800
v 0.107737 -1.996379 0.541631
v 0.143920 -1.854750 0.723535
v 0.171684 -1.670176 0.863114
v 0.189137 -1.455235 0.950858
v 0.020384 2.115777 0.102477
v 0.195090 1.224574 0.980785
v 0.065601 2.085411 0.329800
v 0.107737 1.996379 0.541631
v 0.143920 1.854750 0.723535
v 0.171684 1.670176 0.863114
v 0.189137 1.455235 0.950858
v 0.000000 -2.115777 0.104485
v 0.000000 -1.224574 1.000000
v 0.000000 -2.085411 0.336261
v 0.000000 -1.996379 0.552242
v 0.000000 -1.854750 0.737710
v 0.000000 -1.670176 0.880024
v 0.000000 -1.455235 0.969486
v 0.000000 2.115777 0.104485
v 0.000000 1.224574 1.000000
v 0.000000 2.085411 0.336261
v 0.000000 1.996379 0.552242
v 0.000000 1.854750 0.737710
v 0.000000 1.670176 0.880024
v 0.000000 1.455235 0.969486
v -0.020384 -2.115777 0.102477
v -0.195090 -1.224574 0.980785
v -0.065601 -2.085411 0.329800
v -0.107737 -1.996379 0.541631
v -0.143920 -1.854750 0.723535
v -0.171684 -1.670176 0.863114
v -0.189137 -1.455235 0.950858
v -0.020384 2.115777 0.102477
v -0.195090 1.224574 0.980785
v -0.065601 2.085411 0.329800
v -0.107737 1.996379 0.541631
v -0.143920 1.854750 0.723535
v -0.171684 1.670176 0.863114
v -0.189137 1.455235 0.950858
v -0.039985 -2.115777 0.096531
v -0.382683 -1.224574 0.923880
v -0.128682 -2.085411 0.310665
v -0.211334 -1.996379 0.510205
v -0.282309 -1.854750 0.681555
v -0.336770 -1.670176 0.813036
v -0.371006 -1.455235 0.895688
v -0.039985 2.115777 0.096531
v -0.382683 1.224574 0.923880
v -0.128682 2.085411 0.310665
v -0.211334 1.996379 0.510205
v -0.282309 1.854750 0.681555
v -0.336770 1.670176 0.813036
v -0.371006 1.455235 0.895688
v -0.058049 -2.115777 0.086876
v -0.555570 -1.224574 0.831470
v -0.186817 -2.085411 0.279591
v -0.306810 -1.996379 0.459173
v -0.409850 -1.854750 0.613383
v -0.488915 -1.670176 0.731713
v -0.538618 -1.455235 0.806098
v -0.058049 2.115777 0.086876
v -0.555570 1.224574 0.831470
v -0.186817 2.085411 0.279591
v -0.306810 1.996379 0.459173
v -0.409850 1.854750 0.613383
v -0.488915 1.670176 0.731713
v -0.538618 1.455235 0.806098
v -0.073882 -2.115777 0.073882
v -0.707107 -1.224574 0.707107
v -0.237773 -2.085411 0.237773
v -0.390494 -1.996379 0.390494
v -0.521639 -1.854750 0.521639
v -0.622271 -1.670176 0.622271
v -0.685530 -1.455235 0.685530
v -0.073882 2.115777 0.073882
v -0.707107 1.224574 0.707107
v -0.237773 2.085411 0.237773
v -0.390494 1.996379 0.390494
v -0.521639 1.854750 0.521639
v -0.622271 1.670176 0.622271
v -0.685530 1.455235 0.685530
v -0.086876 -2.115777 0.058049
v -0.831470 -1.224574 0.555570
v -0.279591 -2.085411 0.186817
v -0.459173 -1.996379 0.306810
v -0.613383 -1.854750 0.409850
v -0.731713 -1.670176 0.488915
v -0.806098 -1.455235 0.538618
v -0.086876 2.115777 0.058049
v -0.831470 1.224574 0.555570
v -0.279591 2.085411 0.186817
v -0.459173 1.996379 0.306810
v -0.613383 1.854750 0.409850
v -0.731713 1.670176 0.488915
v -0.806098 1.455235 0.538618
v -0.096531 -2.115777 0.039985
v -0.923880 -1.224574 0.382683
v -0.310665 -2.085411 0.128682
v -0.510205 -1.996379 0.211334
v -0.681555 -1.854750 0.282309
v -0.813036 -1.670176 0.336770
v -0.895688 -1.455235 0.371006
v -0.096531 2.115777 0.039985
v -0.923880 1.224574 0.382683
v -0.310665 2.085411 0.128682
v -0.510205 1.996379 0.211334
v -0.681555 1.854750 0.282309
v -0.813036 1.670176 0.336770
v -0.895688 1.455235 0.371006
v -0.102477 -2.115777 0.020384
v -0.980785 -1.224574 0.195090
v -0.329800 -2.085411 0.065601
v -0.541631 -1.996379 0.107737
v -0.723535 -1.854750 0.143920
v -0.863114 -1.670176 0.171684
v -0.950858 -1.455235 0.189137
v -0.102477 2.115777 0.020384
v -0.980785 1.224574 0.195090
v -0.329800 2.085411 0.065601
v -0.541631 1.996379 0.107737
v -0.723535 1.854750 0.143920
v -0.863114 1.670176 0.171684
v -0.950858 1.455235 0.189137
v -0.104485 -2.115777 0.000000
v -1.000000 -1.224574 0.000000
v -0.336261 -2.085411 0.000000
v -0.552242 -1.996379 0.000000
v -0.737710 -1.854750 0.000000
v -0.880024 -1.670176 0.000000
v -0.969486 -1.455235 0.000000
v -0.104485 2.115777 0.000000
v -1.000000 1.224574 0.000000
v -0.336261 2.085411 0.000000
v -0.552242 1.996379 0.000000
v -0.737710 1.854750 0.000000
v -0.880024 1.670176 0.000000
v -0.969486 1.455235 0.000000
v -0.102477 -2.115777 -0.020384
v -0.980785 -1.224574 -0.195090
v -0.329800 -2.085411 -0.065601
v -0.541631 -1.996379 -0.107737
v -0.723535 -1.854750 -0.143920
v -0.863114 -1.670176 -0.171684
v -0.950858 -1.455235 -0.189137
v -0.102477 2.115777 -0.020384
v -0.980785 1.224574 -0.195090
v -0.329800 2.085411 -0.065601
v -0.541631 1.996379 -0.107737
v -0.723535 1.854750 -0.143920
v -0.863114 1.670176 -0.171684
v -0.950858 1.455235 -0.189137
v -0.096531 -2.115777 -0.039985
v -0.923880 -1.224574 -0.382683
v -0.310665 -2.085411 -0.128682
v -0.510205 -1.996379 -0.211334
v -0.681555 -1.854750 -0.282309
v -0.813036 -1.670176 -0.336770
v -0.895688 -1.455235 -0.371006
v -0.096531 2.115777 -0.039985
v -0.923880 1.224574 -0.382683
v -0.310665 2.085411 -0.128682
v -0.510205 1.996379 -0.211334
v -0.681555 1.854750 -0.282309
v -0.813036 1.670176 -0.336770
v -0.895688 1.455235 -0.371006
v -0.086876 -2.115777 -0.058049
v -0.831470 -1.224574 -0.555570
v -0.279591 -2.085411 -0.186817
v -0.459173 -1.996379 -0.306810
v -0.613383 -1.854750 -0.409850
v -0.731713 -1.670176 -0.488915
v -0.806098 -1.455235 -0.538618
v -0.086876 2.115777 -0.058049
v -0.831470 1.224574 -0.555570
v -0.279591 2.085411 -0.186817
v -0.459173 1.996379 -0.306810
v -0.613383 1.854750 -0.409850
v -0.731713 1.670176 -0.488915
v -0.806098 1.455235 -0.538618
v -0.073882 -2.115777 -0.073882
v -0.707107 -1.224574 -0.707107
v -0.237773 -2.085411 -0.237773
v -0.390494 -1.996379 -0.390494
v -0.521639 -1.854750 -0.521639
v -0.622271 -1.670176 -0.622271
v -0.685530 -1.455235 -0.685530
v -0.073882 2.115777 -0.073882
v -0.707107 1.224574 -0.707107
v -0.237773 2.085411 -0.237773
v -0.390494 1.996379 -0.390494
v -0.521639 1.854750 -0.521639
v -0.622271 1.670176 -0.622271
v -0.685530 1.455235 -0.685530
v -0.058049 -2.115777 -0.086876
v -0.555570 -1.224574 -0.831470
v -0.186817 -2.085411 -0.279591
v -0.306810 -1.996379 -0.459173
v -0.409850 -1.854750 -0.613383
v -0.488915 -1.670176 -0.731713
v -0.538618 -1.455235 -0.806098
v -0.058049 2.115777 -0.086876
v -0.555570 1.224574 -0.831470
v -0.186817 2.085411 -0.279591
v -0.306810 1.996379 -0.459173
v -0.409850 1.854750 -0.613383
v -0.488915 1.670176 -0.731713
v -0.538618 1.455235 -0.806098
v -0.039985 -2.115777 -0.096531
v -0.382683 -1.224574 -0.923880
v -0.128682 -2.085411 -0.310665
v -0.211334 -1.996379 -0.510205
v -0.282309 -1.854750 -0.681555
v -0.336770 -1.670176 -0.813036
v -0.371006 -1.455235 -0.895688
v -0.039985 2.115777 -0.096531
v -0.382683 1.224574 -0.923880
v -0.128682 2.085411 -0.310665
v -0.211334 1.996379 -0.510205
v -0.282309 1.854750 -0.681555
v -0.336770 1.670176 -0.813036
v -0.371006 1.455235 -0.895688
v -0.020384 -2.115777 -0.102477
v -0.195090 -1.224574 -0.980785
v -0.065601 -2.085411 -0.329800
v -0.107737 -1.996379 -0.541631
v -0.143920 -1.854750 -0.723535
v -0.171684 -1.670176 -0.863114
v -0.189137 -1.455235 -0.950858
v -0.020384 2.115777 -0.102477
v -0.195090 1.224574 -0.980785
v -0.065601 2.085411 -0.329800
v -0.107737 1.996379 -0.541631
v -0.143920 1.854750 -0.723535
v -0.171684 1.670176 -0.863114
v -0.189137 1.455235 -0.950858
v 0.000000 -0.918431 -1.000000
v 0.000000 -0.612287 -1.000000
v 0.000000 -0.306144 -1.000000
v 0.000000 0.000000 -1.000000
v 0.000000 0.306144 -1.000000
v 0.000000 0.612287 -1.000000
v 0.000000 0.918431 -1.000000
v 0.195090 0.918431 -0.980785
v 0.195090 0.612287 -0.980785
v 0.195090 0.306144 -0.980785
v 0.195090 0.000000 -0.980785
v 0.195090 -0.306144 -0.980785
v 0.195090 -0.612287 -0.980785
v 0.195090 -0.918431 -0.980785
v -0.195090 -0.918431 -0.980785
v -0.195090 -0.612287 -0.980785
v -0.195090 -0.306144 -0.980785
v -0.195090 0.000000 -0.980785
v -0.195090 0.306144 -0.980785
v -0.195090 0.612287 -0.980785
v -0.195090 0.918431 -0.980785
v 0.382683 0.918431 -0.923880
v 0.382683 0.612287 -0.923880
v 0.382683 0.306144 -0.923880
v 0.382683 0.000000 -0.923880
v 0.382683 -0.306144 -0.923880
v 0.382683 -0.612287 -0.923880
v 0.382683 -0.918431 -0.923880
v 0.555570 0.918431 -0.831470
v 0.555570 0.612287 -0.831470
v 0.555570 0.306144 -0.831470
v 0.555570 0.000000 -0.831470
v 0.555570 -0.306144 -0.831470
v 0.555570 -0.612287 -0.831470
v 0.555570 -0.918431 -0.831470
v 0.707107 0.918431 -0.707107
v 0.707107 0.612287 -0.707107
v 0.707107 0.306144 -0.707107
v 0.707107 0.000000 -0.707107
v 0.707107 -0.306144 -0.707107
v 0.707107 -0.612287 -0.707107
v 0.707107 -0.918431 -0.707107
v 0.831470 0.918431 -0.555570
v 0.831470 0.612287 -0.555570
v 0.831470 0.306144 -0.555570
v 0.831470 0.000000 -0.555570
v 0.831470 -0.306144 -0.555570
v 0.831470 -0.612287 -0.555570
v 0.831470 -0.918431 -0.555570
v 0.923880 0.918431 -0.382683
v 0.923880 0.612287 -0.382683
v 0.923880 0.306144 -0.382683
v 0.923880 0.000000 -0.382683
v 0.923880 -0.306144 -0.382683
v 0.923880 -0.612287 -0.382683
v 0.923880 -0.918431 -0.382683
v 0.980785 0.918431 -0.195090
v 0.980785 0.612287 -0.195090
v 0.980785 0.306144 -0.195090
v 0.980785 0.000000 -0.195090
v 0.980785 -0.306144 -0.195090
v 0.980785 -0.612287 -0.195090
v 0.980785 -0.918431 -0.195090
v 1.000000 0.918431 0.000000
v 1.000000 0.612287 0.000000
v 1.000000 0.306144 0.000000
v 1.000000 0.000000 0.000000
v 1.000000 -0.306144 0.000000
v 1.000000 -0.612287 0.000000
v 1.000000 -0.918431 0.000000
v 0.980785 0.918431 0.195090
v 0.980785 0.612287 0.195090
v 0.980785 0.306144 0.195090
v 0.980785 0.000000 0.195090
v 0.980785 -0.306144 0.195090
v 0.980785 -0.612287 0.195090
v 0.980785 -0.918431 0.195090
v 0.923880 0.918431 0.382683
v 0.923880 0.612287 0.382683
v 0.923880 0.306144 0.382683
v 0.923880 0.000000 0.382683
v 0.923880 -0.306144 0.382683
v 0.923880 -0.612287 0.382683
v 0.923880 -0.918431 0.382683
v 0.831470 0.918431 0.555570
v 0.831470 0.612287 0.555570
v 0.831470 0.306144 0.555570
v 0.831470 0.000000 0.555570
v 0.831470 -0.306144 0.555570
v 0.831470 -0.612287 0.555570
v 0.831470 -0.918431 0.555570
v 0.707107 0.918431 0.707107
v 0.707107 0.612287 0.707107
v 0.707107 0.306144 0.707107
v 0.707107 0.000000 0.707107
v 0.707107 -0.306144 0.707107
v 0.707107 -0.612287 0.707107
v 0.707107 -0.918431 0.707107
v 0.555570 0.918431 0.831470
v 0.555570 0.612287 0.831470
v 0.555570 0.306144 0.831470
v 0.555570 0.000000 0.831470
v 0.555570 -0.306144 0.831470
v 0.555570 -0.612287 0.831470
v 0.555570 -0.918431 0.831470
v 0.382683 0.918431 0.923880
v 0.382683 0.612287 0.923880
v 0.382683 0.306144 0.923880
v 0.382683 0.000000 0.923880
v 0.382683 -0.306144 0.923880
v 0.382683 -0.612287 0.923880
v 0.382683 -0.918431 0.923880
v 0.195090 0.918431 0.980785
v 0.195090 0.612287 0.980785
v 0.195090 0.306144 0.980785
v 0.195090 0.000000 0.980785
v 0.195090 -0.306144 0.980785
v 0.195090 -0.612287 0.980785
v 0.195090 -0.918431 0.980785
v 0.000000 0.918431 1.000000
v 0.000000 0.612287 1.000000
v 0.000000 0.306144 1.000000
v 0.000000 0.000000 1.000000
v 0.000000 -0.306144 1.000000
v 0.000000 -0.612287 1.000000
v 0.000000 -0.918431 1.000000
v -0.195090 0.918431 0.980785
v -0.195090 0.612287 0.980785
v -0.195090 0.306144 0.980785
v -0.195090 0.000000 0.980785
v -0.195090 -0.306144 0.980785
v -0.195090 -0.612287 0.980785
v -0.195090 -0.918431 0.980785
v -0.382683 0.918431 0.923880
v -0.382683 0.612287 0.923880
v -0.382683 0.306144 0.923880
v -0.382683 0.000000 0.923880
v -0.382683 -0.306144 0.923880
v -0.382683 -0.612287 0.923880
v -0.382683 -0.918431 0.923880
v -0.555570 0.918431 0.831470
v -0.555570 0.612287 0.831470
v -0.555570 0.306144 0.831470
v -0.555570 0.000000 0.831470
v -0.555570 -0.306144 0.831470
v -0.555570 -0.612287 0.831470
v -0.555570 -0.918431 0.831470
v -0.707107 0.918431 0.707107
v -0.707107 0.612287 0.707107
v -0.707107 0.306144 0.707107
v -0.707107 0.000000 0.707107
v -0.707107 -0.306144 0.707107
v -0.707107 -0.612287 0.707107
v -0.707107 -0.918431 0.707107
v -0.831470 0.918431 0.555570
v -0.831470 0.612287 0.555570
v -0.831470 0.306144 0.555570
v -0.831470 0.000000 0.555570
v -0.831470 -0.306144 0.555570
v -0.831470 -0.612287 0.555570
v -0.831470 -0.918431 0.555570
v -0.923880 0.918431 0.382683
v -0.923880 0.612287 0.382683
v -0.923880 0.306144 0.382683
v -0.923880 0.000000 0.382683
v -0.923880 -0.306144 0.382683
v -0.923880 -0.612287 0.382683
v -0.923880 -0.918431 0.382683
v -0.980785 0.918431 0.195090
v -0.980785 0.612287 0.195090
v -0.980785 0.306144 0.195090
v -0.980785 0.000000 0.195090
v -0.980785 -0.306144 0.195090
v -0.980785 -0.612287 0.195090
v -0.980785 -0.918431 0.195090
v -1.000000 0.918431 0.000000
v -1.000000 0.612287 0.000000
v -1.000000 0.306144 0.000000
v -1.000000 0.000000 0.000000
v -1.000000 -0.306144 0.000000
v -1.000000 -0.612287 0.000000
v -1.000000 -0.918431 0.000000
v -0.980785 0.918431 -0.195090
v -0.980785 0.612287 -0.195090
v -0.980785 0.306144 -0.195090
v -0.980785 0.000000 -0.195090
v -0.980785 -0.306144 -0.195090
v -0.980785 -0.612287 -0.195090
v -0.980785 -0.918431 -0.195090
v -0.923880 0.918431 -0.382683
v -0.923880 0.612287 -0.382683
v -0.923880 0.306144 -0.382683
v -0.923880 0.000000 -0.382683
v -0.923880 -0.306144 -0.382683
v -0.923880 -0.612287 -0.382683
v -0.923880 -0.918431 -0.382683
v -0.831470 0.918431 -0.555570
v -0.831470 0.612287 -0.555570
v -0.831470 0.306144 -0.555570
v -0.831470 0.000000 -0.555570
v -0.831470 -0.306144 -0.555570
v -0.831470 -0.612287 -0.555570
v -0.831470 -0.918431 -0.555570
v -0.707107 0.918431 -0.707107
v -0.707107 0.612287 -0.707107
v -0.707107 0.306144 -0.707107
v -0.707107 0.000000 -0.707107
v -0.707107 -0.306144 -0.707107
v -0.707107 -0.612287 -0.707107
v -0.707107 -0.918431 -0.707107
v -0.555570 0.918431 -0.831470
v -0.555570 0.612287 -0.831470
v -0.555570 0.306144 -0.831470
v -0.555570 0.000000 -0.831470
v -0.555570 -0.306144 -0.831470
v -0.555570 -0.612287 -0.831470
v -0.555570 -0.918431 -0.831470
v -0.382683 0.918431 -0.923880
v -0.382683 0.612287 -0.923880
v -0.382683 0.306144 -0.923880
v -0.382683 0.000000 -0.923880
v -0.382683 -0.306144 -0.923880
v -0.382683 -0.612287 -0.923880
v -0.382683 -0.918431 -0.923880
s 0
usemtl Material
f 16 7 2
f 21 6 7
f 20 5 6
f 19 4 5
f 18 3 4
f 3 15 1
f 23 14 28
f 28 13 27
f 27 12 26
f 26 11 25
f 11 24 25
f 10 22 24
f 30 21 16
f 21 34 20
f 34 19 20
f 19 32 18
f 32 17 18
f 17 29 15
f 23 42 37
f 28 41 42
f 27 40 41
f 26 39 40
f 25 38 39
f 24 36 38
f 44 35 30
f 35 48 34
f 48 33 34
f 47 32 33
f 32 45 31
f 45 29 31
f 37 56 51
f 42 55 56
f 55 40 54
f 54 39 53
f 53 38 52
f 38 50 52
f 58 49 44
f 63 48 49
f 62 47 48
f 61 46 47
f 60 45 46
f 59 43 45
f 51 70 65
f 70 55 69
f 69 54 68
f 68 53 67
f 53 66 67
f 66 50 64
f 72 63 58
f 63 76 62
f 62 75 61
f 61 74 60
f 74 59 60
f 59 71 57
f 65 84 79
f 70 83 84
f 69 82 83
f 68 81 82
f 67 80 81
f 66 78 80
f 86 77 72
f 91 76 77
f 76 89 75
f 75 88 74
f 74 87 73
f 87 71 73
f 79 98 93
f 98 83 97
f 83 96 97
f 82 95 96
f 95 80 94
f 80 92 94
f 100 91 86
f 105 90 91
f 104 89 90
f 103 88 89
f 102 87 88
f 101 85 87
f 93 112 107
f 112 97 111
f 97 110 111
f 110 95 109
f 95 108 109
f 108 92 106
f 100 119 105
f 105 118 104
f 104 117 103
f 103 116 102
f 116 101 102
f 115 99 101
f 107 126 121
f 112 125 126
f 111 124 125
f 110 123 124
f 109 122 123
f 122 106 120
f 128 119 114
f 133 118 119
f 132 117 118
f 131 116 117
f 130 115 116
f 115 127 113
f 135 126 140
f 140 125 139
f 139 124 138
f 138 123 137
f 123 136 137
f 122 134 136
f 142 133 128
f 133 146 132
f 146 131 132
f 131 144 130
f 144 129 130
f 129 141 127
f 135 154 149
f 140 153 154
f 139 152 153
f 138 151 152
f 137 150 151
f 136 148 150
f 156 147 142
f 147 160 146
f 160 145 146
f 159 144 145
f 144 157 143
f 157 141 143
f 149 168 163
f 154 167 168
f 167 152 166
f 166 151 165
f 165 150 164
f 150 162 164
f 170 161 156
f 175 160 161
f 174 159 160
f 173 158 159
f 172 157 158
f 171 155 157
f 163 182 177
f 182 167 181
f 181 166 180
f 180 165 179
f 165 178 179
f 178 162 176
f 184 175 170
f 175 188 174
f 174 187 173
f 173 186 172
f 186 171 172
f 171 183 169
f 177 196 191
f 182 195 196
f 181 194 195
f 180 193 194
f 179 192 193
f 178 190 192
f 198 189 184
f 203 188 189
f 188 201 187
f 187 200 186
f 186 199 185
f 199 183 185
f 191 210 205
f 210 195 209
f 195 208 209
f 194 207 208
f 207 192 206
f 192 204 206
f 212 203 198
f 217 202 203
f 216 201 202
f 215 200 201
f 214 199 200
f 213 197 199
f 205 224 219
f 224 209 223
f 209 222 223
f 222 207 221
f 207 220 221
f 220 204 218
f 212 231 217
f 217 230 216
f 216 229 215
f 215 228 214
f 228 213 214
f 227 211 213
f 219 238 233
f 224 237 238
f 223 236 237
f 222 235 236
f 221 234 235
f 234 218 232
f 240 231 226
f 245 230 231
f 244 229 230
f 243 228 229
f 242 227 228
f 227 239 225
f 247 238 252
f 252 237 251
f 251 236 250
f 250 235 249
f 235 248 249
f 234 246 248
f 254 245 240
f 245 258 244
f 258 243 244
f 243 256 242
f 256 241 242
f 241 253 239
f 247 266 261
f 252 265 266
f 251 264 265
f 250 263 264
f 249 262 263
f 248 260 262
f 268 259 254
f 259 272 258
f 272 257 258
f 271 256 257
f 256 269 255
f 269 253 255
f 261 280 275
f 266 279 280
f 279 264 278
f 278 263 277
f 277 262 276
f 262 274 276
f 282 273 268
f 287 272 273
f 286 271 272
f 285 270 271
f 284 269 270
f 283 267 269
f 275 294 289
f 294 279 293
f 293 278 292
f 292 277 291
f 277 290 291
f 290 274 288
f 296 287 282
f 287 300 286
f 286 299 285
f 285 298 284
f 298 283 284
f 283 295 281
f 289 308 303
f 294 307 308
f 293 306 307
f 292 305 306
f 291 304 305
f 290 302 304
f 310 301 296
f 315 300 301
f 300 313 299
f 299 312 298
f 298 311 297
f 311 295 297
f 303 322 317
f 322 307 321
f 307 320 321
f 306 319 320
f 319 304 318
f 304 316 318
f 324 315 310
f 329 314 315
f 328 313 314
f 327 312 313
f 326 311 312
f 325 309 311
f 317 336 331
f 336 321 335
f 321 334 335
f 334 319 333
f 319 332 333
f 332 316 330
f 324 343 329
f 329 342 328
f 328 341 327
f 327 340 326
f 340 325 326
f 339 323 325
f 331 350 345
f 336 349 350
f 335 348 349
f 334 347 348
f 333 346 347
f 346 330 344
f 352 343 338
f 357 342 343
f 356 341 342
f 355 340 341
f 354 339 340
f 339 351 337
f 359 350 364
f 364 349 363
f 363 348 362
f 362 347 361
f 347 360 361
f 346 358 360
f 366 357 352
f 357 370 356
f 370 355 356
f 355 368 354
f 368 353 354
f 353 365 351
f 359 378 373
f 364 377 378
f 363 376 377
f 362 375 376
f 361 374 375
f 360 372 374
f 380 371 366
f 371 384 370
f 384 369 370
f 383 368 369
f 368 381 367
f 381 365 367
f 373 392 387
f 378 391 392
f 391 376 390
f 390 375 389
f 389 374 388
f 374 386 388
f 394 385 380
f 399 384 385
f 398 383 384
f 397 382 383
f 396 381 382
f 395 379 381
f 387 406 401
f 406 391 405
f 405 390 404
f 404 389 403
f 389 402 403
f 402 386 400
f 408 399 394
f 399 412 398
f 398 411 397
f 397 410 396
f 410 395 396
f 395 407 393
f 401 420 415
f 406 419 420
f 405 418 419
f 404 417 418
f 403 416 417
f 402 414 416
f 422 413 408
f 427 412 413
f 412 425 411
f 411 424 410
f 410 423 409
f 423 407 409
f 415 434 429
f 434 419 433
f 419 432 433
f 418 431 432
f 431 416 430
f 416 428 430
f 436 427 422
f 441 426 427
f 440 425 426
f 439 424 425
f 438 423 424
f 437 421 423
f 429 448 443
f 448 433 447
f 433 446 447
f 446 431 445
f 431 444 445
f 444 428 442
f 436 7 441
f 441 6 440
f 440 5 439
f 439 4 438
f 4 437 438
f 3 435 437
f 443 14 9
f 448 13 14
f 447 12 13
f 446 11 12
f 445 10 11
f 10 442 8
f 211 323 435
f 9 456 455
f 443 455 469
f 260 148 36
f 23 470 456
f 37 477 470
f 51 484 477
f 65 491 484
f 79 498 491
f 93 505 498
f 107 512 505
f 121 519 512
f 135 526 519
f 149 533 526
f 163 540 533
f 177 547 540
f 191 554 547
f 205 561 554
f 219 568 561
f 233 575 568
f 247 582 575
f 261 589 582
f 275 596 589
f 289 603 596
f 303 610 603
f 317 617 610
f 331 624 617
f 345 631 624
f 359 638 631
f 373 645 638
f 387 652 645
f 401 659 652
f 415 666 659
f 429 469 666
f 672 436 422
f 671 463 672
f 670 464 671
f 669 465 670
f 668 466 669
f 667 467 668
f 666 468 667
f 665 422 408
f 664 672 665
f 663 671 664
f 662 670 663
f 661 669 662
f 660 668 661
f 659 667 660
f 658 408 394
f 657 665 658
f 656 664 657
f 655 663 656
f 654 662 655
f 653 661 654
f 652 660 653
f 651 394 380
f 650 658 651
f 649 657 650
f 648 656 649
f 647 655 648
f 646 654 647
f 645 653 646
f 644 380 366
f 643 651 644
f 642 650 643
f 641 649 642
f 640 648 641
f 639 647 640
f 638 646 639
f 637 366 352
f 636 644 637
f 635 643 636
f 634 642 635
f 633 641 634
f 632 640 633
f 631 639 632
f 630 352 338
f 629 637 630
f 628 636 629
f 627 635 628
f 626 634 627
f 625 633 626
f 624 632 625
f 623 338 324
f 622 630 623
f 621 629 622
f 620 628 621
f 619 627 620
f 618 626 619
f 617 625 618
f 616 324 310
f 615 623 616
f 614 622 615
f 613 621 614
f 612 620 613
f 611 619 612
f 610 618 611
f 609 310 296
f 608 616 609
f 607 615 608
f 606 614 607
f 605 613 606
f 604 612 605
f 603 611 604
f 602 296 282
f 601 609 602
f 600 608 601
f 599 607 600
f 598 606 599
f 597 605 598
f 596 604 597
f 595 282 268
f 594 602 595
f 593 601 594
f 592 600 593
f 591 599 592
f 590 598 591
f 589 597 590
f 588 268 254
f 587 595 588
f 586 594 587
f 585 593 586
f 584 592 585
f 583 591 584
f 582 590 583
f 581 254 240
f 580 588 581
f 579 587 580
f 578 586 579
f 577 585 578
f 576 584 577
f 575 583 576
f 574 240 226
f 573 581 574
f 572 580 573
f 571 579 572
f 570 578 571
f 569 577 570
f 568 576 569
f 567 226 212
f 566 574 567
f 565 573 566
f 564 572 565
f 563 571 564
f 562 570 563
f 561 569 562
f 560 212 198
f 559 567 560
f 558 566 559
f 557 565 558
f 556 564 557
f 555 563 556
f 554 562 555
f 553 198 184
f 552 560 553
f 551 559 552
f 550 558 551
f 549 557 550
f 548 556 549
f 547 555 548
f 546 184 170
f 545 553 546
f 544 552 545
f 543 551 544
f 542 550 543
f 541 549 542
f 540 548 541
f 539 170 156
f 538 546 539
f 537 545 538
f 536 544 537
f 535 543 536
f 534 542 535
f 533 541 534
f 532 156 142
f 531 539 532
f 530 538 531
f 529 537 530
f 528 536 529
f 527 535 528
f 526 534 527
f 525 142 128
f 524 532 525
f 523 531 524
f 522 530 523
f 521 529 522
f 520 528 521
f 519 527 520
f 518 128 114
f 517 525 518
f 516 524 517
f 515 523 516
f 514 522 515
f 513 521 514
f 512 520 513
f 511 114 100
f 510 518 511
f 509 517 510
f 508 516 509
f 507 515 508
f 506 514 507
f 505 513 506
f 504 100 86
f 503 511 504
f 502 510 503
f 501 509 502
f 500 508 501
f 499 507 500
f 498 506 499
f 497 86 72
f 496 504 497
f 495 503 496
f 494 502 495
f 493 501 494
f 492 500 493
f 491 499 492
f 490 72 58
f 489 497 490
f 488 496 489
f 487 495 488
f 486 494 487
f 485 493 486
f 484 492 485
f 483 58 44
f 482 490 483
f 481 489 482
f 480 488 481
f 479 487 480
f 478 486 479
f 477 485 478
f 476 44 30
f 475 483 476
f 474 482 475
f 473 481 474
f 472 480 473
f 471 479 472
f 470 478 471
f 462 30 16
f 461 476 462
f 460 475 461
f 459 474 460
f 458 473 459
f 457 472 458
f 456 471 457
f 463 2 436
f 464 449 463
f 465 450 464
f 466 451 465
f 467 452 466
f 468 453 467
f 469 454 468
f 449 16 2
f 450 462 449
f 451 461 450
f 452 460 451
f 453 459 452
f 454 458 453
f 455 457 454
f 16 21 7
f 21 20 6
f 20 19 5
f 19 18 4
f 18 17 3
f 3 17 15
f 23 9 14
f 28 14 13
f 27 13 12
f 26 12 11
f 11 10 24
f 10 8 22
f 30 35 21
f 21 35 34
f 34 33 19
f 19 33 32
f 32 31 17
f 17 31 29
f 23 28 42
f 28 27 41
f 27 26 40
f 26 25 39
f 25 24 38
f 24 22 36
f 44 49 35
f 35 49 48
f 48 47 33
f 47 46 32
f 32 46 45
f 45 43 29
f 37 42 56
f 42 41 55
f 55 41 40
f 54 40 39
f 53 39 38
f 38 36 50
f 58 63 49
f 63 62 48
f 62 61 47
f 61 60 46
f 60 59 45
f 59 57 43
f 51 56 70
f 70 56 55
f 69 55 54
f 68 54 53
f 53 52 66
f 66 52 50
f 72 77 63
f 63 77 76
f 62 76 75
f 61 75 74
f 74 73 59
f 59 73 71
f 65 70 84
f 70 69 83
f 69 68 82
f 68 67 81
f 67 66 80
f 66 64 78
f 86 91 77
f 91 90 76
f 76 90 89
f 75 89 88
f 74 88 87
f 87 85 71
f 79 84 98
f 98 84 83
f 83 82 96
f 82 81 95
f 95 81 80
f 80 78 92
f 100 105 91
f 105 104 90
f 104 103 89
f 103 102 88
f 102 101 87
f 101 99 85
f 93 98 112
f 112 98 97
f 97 96 110
f 110 96 95
f 95 94 108
f 108 94 92
f 100 114 119
f 105 119 118
f 104 118 117
f 103 117 116
f 116 115 101
f 115 113 99
f 107 112 126
f 112 111 125
f 111 110 124
f 110 109 123
f 109 108 122
f 122 108 106
f 128 133 119
f 133 132 118
f 132 131 117
f 131 130 116
f 130 129 115
f 115 129 127
f 135 121 126
f 140 126 125
f 139 125 124
f 138 124 123
f 123 122 136
f 122 120 134
f 142 147 133
f 133 147 146
f 146 145 131
f 131 145 144
f 144 143 129
f 129 143 141
f 135 140 154
f 140 139 153
f 139 138 152
f 138 137 151
f 137 136 150
f 136 134 148
f 156 161 147
f 147 161 160
f 160 159 145
f 159 158 144
f 144 158 157
f 157 155 141
f 149 154 168
f 154 153 167
f 167 153 152
f 166 152 151
f 165 151 150
f 150 148 162
f 170 175 161
f 175 174 160
f 174 173 159
f 173 172 158
f 172 171 157
f 171 169 155
f 163 168 182
f 182 168 167
f 181 167 166
f 180 166 165
f 165 164 178
f 178 164 162
f 184 189 175
f 175 189 188
f 174 188 187
f 173 187 186
f 186 185 171
f 171 185 183
f 177 182 196
f 182 181 195
f 181 180 194
f 180 179 193
f 179 178 192
f 178 176 190
f 198 203 189
f 203 202 188
f 188 202 201
f 187 201 200
f 186 200 199
f 199 197 183
f 191 196 210
f 210 196 195
f 195 194 208
f 194 193 207
f 207 193 192
f 192 190 204
f 212 217 203
f 217 216 202
f 216 215 201
f 215 214 200
f 214 213 199
f 213 211 197
f 205 210 224
f 224 210 209
f 209 208 222
f 222 208 207
f 207 206 220
f 220 206 204
f 212 226 231
f 217 231 230
f 216 230 229
f 215 229 228
f 228 227 213
f 227 225 211
f 219 224 238
f 224 223 237
f 223 222 236
f 222 221 235
f 221 220 234
f 234 220 218
f 240 245 231
f 245 244 230
f 244 243 229
f 243 242 228
f 242 241 227
f 227 241 239
f 247 233 238
f 252 238 237
f 251 237 236
f 250 236 235
f 235 234 248
f 234 232 246
f 254 259 245
f 245 259 258
f 258 257 243
f 243 257 256
f 256 255 241
f 241 255 253
f 247 252 266
f 252 251 265
f 251 250 264
f 250 249 263
f 249 248 262
f 248 246 260
f 268 273 259
f 259 273 272
f 272 271 257
f 271 270 256
f 256 270 269
f 269 267 253
f 261 266 280
f 266 265 279
f 279 265 264
f 278 264 263
f 277 263 262
f 262 260 274
f 282 287 273
f 287 286 272
f 286 285 271
f 285 284 270
f 284 283 269
f 283 281 267
f 275 280 294
f 294 280 279
f 293 279 278
f 292 278 277
f 277 276 290
f 290 276 274
f 296 301 287
f 287 301 300
f 286 300 299
f 285 299 298
f 298 297 283
f 283 297 295
f 289 294 308
f 294 293 307
f 293 292 306
f 292 291 305
f 291 290 304
f 290 288 302
f 310 315 301
f 315 314 300
f 300 314 313
f 299 313 312
f 298 312 311
f 311 309 295
f 303 308 322
f 322 308 307
f 307 306 320
f 306 305 319
f 319 305 304
f 304 302 316
f 324 329 315
f 329 328 314
f 328 327 313
f 327 326 312
f 326 325 311
f 325 323 309
f 317 322 336
f 336 322 321
f 321 320 334
f 334 320 319
f 319 318 332
f 332 318 316
f 324 338 343
f 329 343 342
f 328 342 341
f 327 341 340
f 340 339 325
f 339 337 323
f 331 336 350
f 336 335 349
f 335 334 348
f 334 333 347
f 333 332 346
f 346 332 330
f 352 357 343
f 357 356 342
f 356 355 341
f 355 354 340
f 354 353 339
f 339 353 351
f 359 345 350
f 364 350 349
f 363 349 348
f 362 348 347
f 347 346 360
f 346 344 358
f 366 371 357
f 357 371 370
f 370 369 355
f 355 369 368
f 368 367 353
f 353 367 365
f 359 364 378
f 364 363 377
f 363 362 376
f 362 361 375
f 361 360 374
f 360 358 372
f 380 385 371
f 371 385 384
f 384 383 369
f 383 382 368
f 368 382 381
f 381 379 365
f 373 378 392
f 378 377 391
f 391 377 376
f 390 376 375
f 389 375 374
f 374 372 386
f 394 399 385
f 399 398 384
f 398 397 383
f 397 396 382
f 396 395 381
f 395 393 379
f 387 392 406
f 406 392 391
f 405 391 390
f 404 390 389
f 389 388 402
f 402 388 386
f 408 413 399
f 399 413 412
f 398 412 411
f 397 411 410
f 410 409 395
f 395 409 407
f 401 406 420
f 406 405 419
f 405 404 418
f 404 403 417
f 403 402 416
f 402 400 414
f 422 427 413
f 427 426 412
f 412 426 425
f 411 425 424
f 410 424 423
f 423 421 407
f 415 420 434
f 434 420 419
f 419 418 432
f 418 417 431
f 431 417 416
f 416 414 428
f 436 441 427
f 441 440 426
f 440 439 425
f 439 438 424
f 438 437 423
f 437 435 421
f 429 434 448
f 448 434 433
f 433 432 446
f 446 432 431
f 431 430 444
f 444 430 428
f 436 2 7
f 441 7 6
f 440 6 5
f 439 5 4
f 4 3 437
f 3 1 435
f 443 448 14
f 448 447 13
f 447 446 12
f 446 445 11
f 445 444 10
f 10 444 442
f 435 1 43
f 1 15 43
f 15 29 43
f 43 57 71
f 71 85 43
f 85 99 43
f 99 113 155
f 113 127 155
f 127 141 155
f 155 169 183
f 183 197 155
f 197 211 155
f 211 225 267
f 225 239 267
f 239 253 267
f 267 281 295
f 295 309 267
f 309 323 267
f 323 337 379
f 337 351 379
f 351 365 379
f 379 393 407
f 407 421 379
f 421 435 379
f 435 43 99
f 99 155 211
f 211 267 323
f 323 379 435
f 435 99 211
f 9 23 456
f 443 9 455
f 36 22 8
f 8 442 428
f 428 414 372
f 414 400 372
f 400 386 372
f 372 358 344
f 344 330 316
f 316 302 260
f 302 288 260
f 288 274 260
f 260 246 232
f 232 218 204
f 204 190 148
f 190 176 148
f 176 162 148
f 148 134 120
f 120 106 92
f 92 78 36
f 78 64 36
f 64 50 36
f 36 8 372
f 8 428 372
f 372 344 260
f 344 316 260
f 260 232 148
f 232 204 148
f 148 120 36
f 120 92 36
f 36 372 260
f 23 37 470
f 37 51 477
f 51 65 484
f 65 79 491
f 79 93 498
f 93 107 505
f 107 121 512
f 121 135 519
f 135 149 526
f 149 163 533
f 163 177 540
f 177 191 547
f 191 205 554
f 205 219 561
f 219 233 568
f 233 247 575
f 247 261 582
f 261 275 589
f 275 289 596
f 289 303 603
f 303 317 610
f 317 331 617
f 331 345 624
f 345 359 631
f 359 373 638
f 373 387 645
f 387 401 652
f 401 415 659
f 415 429 666
f 429 443 469
f 672 463 436
f 671 464 463
f 670 465 464
f 669 466 465
f 668 467 466
f 667 468 467
f 666 469 468
f 665 672 422
f 664 671 672
f 663 670 671
f 662 669 670
f 661 668 669
f 660 667 668
f 659 666 667
f 658 665 408
f 657 664 665
f 656 663 664
f 655 662 663
f 654 661 662
f 653 660 661
f 652 659 660
f 651 658 394
f 650 657 658
f 649 656 657
f 648 655 656
f 647 654 655
f 646 653 654
f 645 652 653
f 644 651 380
f 643 650 651
f 642 649 650
f 641 648 649
f 640 647 648
f 639 646 647
f 638 645 646
f 637 644 366
f 636 643 644
f 635 642 643
f 634 641 642
f 633 640 641
f 632 639 640
f 631 638 639
f 630 637 352
f 629 636 637
f 628 635 636
f 627 634 635
f 626 633 634
f 625 632 633
f 624 631 632
f 623 630 338
f 622 629 630
f 621 628 629
f 620 627 628
f 619 626 627
f 618 625 626
f 617 624 625
f 616 623 324
f 615 622 623
f 614 621 622
f 613 620 621
f 612 619 620
f 611 618 619
f 610 617 618
f 609 616 310
f 608 615 616
f 607 614 615
f 606 613 614
f 605 612 613
f 604 611 612
f 603 610 611
f 602 609 296
f 601 608 609
f 600 607 608
f 599 606 607
f 598 605 606
f 597 604 605
f 596 603 604
f 595 602 282
f 594 601 602
f 593 600 601
f 592 599 600
f 591 598 599
f 590 597 598
f 589 596 597
f 588 595 268
f 587 594 595
f 586 593 594
f 585 592 593
f 584 591 592
f 583 590 591
f 582 589 590
f 581 588 254
f 580 587 588
f 579 586 587
f 578 585 586
f 577 584 585
f 576 583 584
f 575 582 583
f 574 581 240
f 573 580 581
f 572 579 580
f 571 578 579
f 570 577 578
f 569 576 577
f 568 575 576
f 567 574 226
f 566 573 574
f 565 572 573
f 564 571 572
f 563 570 571
f 562 569 570
f 561 568 569
f 560 567 212
f 559 566 567
f 558 565 566
f 557 564 565
f 556 563 564
f 555 562 563
f 554 561 562
f 553 560 198
f 552 559 560
f 551 558 559
f 550 557 558
f 549 556 557
f 548 555 556
f 547 554 555
f 546 553 184
f 545 552 553
f 544 551 552
f 543 550 551
f 542 549 550
f 541 548 549
f 540 547 548
f 539 546 170
f 538 545 546
f 537 544 545
f 536 543 544
f 535 542 543
f 534 541 542
f 533 540 541
f 532 539 156
f 531 538 539
f 530 537 538
f 529 536 537
f 528 535 536
f 527 534 535
f 526 533 534
f 525 532 142
f 524 531 532
f 523 530 531
f 522 529 530
f 521 528 529
f 520 527 528
f 519 526 527
f 518 525 128
f 517 524 525
f 516 523 524
f 515 522 523
f 514 521 522
f 513 520 521
f 512 519 520
f 511 518 114
f 510 517 518
f 509 516 517
f 508 515 516
f 507 514 515
f 506 513 514
f 505 512 513
f 504 511 100
f 503 510 511
f 502 509 510
f 501 508 509
f 500 507 508
f 499 506 507
f 498 505 506
f 497 504 86
f 496 503 504
f 495 502 503
f 494 501 502
f 493 500 501
f 492 499 500
f 491 498 499
f 490 497 72
f 489 496 497
f 488 495 496
f 487 494 495
f 486 493 494
f 485 492 493
f 484 491 492
f 483 490 58
f 482 489 490
f 481 488 489
f 480 487 488
f 479 486 487
f 478 485 486
f 477 484 485
f 476 483 44
f 475 482 483
f 474 481 482
f 473 480 481
f 472 479 480
f 471 478 479
f 470 477 478
f 462 476 30
f 461 475 476
f 460 474 475
f 459 473 474
f 458 472 473
f 457 471 472
f 456 470 471
f 463 449 2
f 464 450 449
f 465 451 450
f 466 452 451
f 467 453 452
f 468 454 453
f 469 455 454
f 449 462 16
f 450 461 462
f 451 460 461
f 452 459 460
f 453 458 459
f 454 457 458
f 455 456 457
