# Blender 4.5.2 LTS
# www.blender.org
mtllib longer bacteria.mtl
o Cylinder
v 0.000000 -5.398614 -0.081369
v 0.000000 -4.484407 -1.000000
v 0.000000 -5.367464 -0.319128
v 0.000000 -5.276134 -0.540685
v 0.000000 -5.130849 -0.730939
v 0.000000 -4.941511 -0.876927
v 0.000000 -4.721021 -0.968698
v 0.000000 5.398614 -0.081369
v 0.000000 4.484407 -1.000000
v 0.000000 5.367464 -0.319128
v 0.000000 5.276134 -0.540685
v 0.000000 5.130849 -0.730939
v 0.000000 4.941511 -0.876927
v 0.000000 4.721021 -0.968698
v 0.015874 -5.398614 -0.079806
v 0.195090 -4.484407 -0.980785
v 0.062259 -5.367464 -0.312996
v 0.105482 -5.276134 -0.530295
v 0.142599 -5.130849 -0.716894
v 0.171080 -4.941511 -0.860077
v 0.188984 -4.721021 -0.950085
v 0.015874 5.398614 -0.079806
v 0.195090 4.484407 -0.980785
v 0.062259 5.367464 -0.312996
v 0.105482 5.276134 -0.530295
v 0.142599 5.130849 -0.716894
v 0.171080 4.941511 -0.860077
v 0.188984 4.721021 -0.950085
v 0.031139 -5.398614 -0.075175
v 0.382683 -4.484407 -0.923880
v 0.122125 -5.367464 -0.294836
v 0.206911 -5.276134 -0.499527
v 0.279718 -5.130849 -0.675300
v 0.335585 -4.941511 -0.810175
v 0.370705 -4.721021 -0.894961
v 0.031139 5.398614 -0.075175
v 0.382683 4.484407 -0.923880
v 0.122125 5.367464 -0.294836
v 0.206911 5.276134 -0.499527
v 0.279718 5.130849 -0.675300
v 0.335585 4.941511 -0.810175
v 0.370705 4.721021 -0.894961
v 0.045207 -5.398614 -0.067656
v 0.555570 -4.484407 -0.831470
v 0.177298 -5.367464 -0.265345
v 0.300388 -5.276134 -0.449563
v 0.406088 -5.130849 -0.607754
v 0.487194 -4.941511 -0.729138
v 0.538180 -4.721021 -0.805443
v 0.045207 5.398614 -0.067656
v 0.555570 4.484407 -0.831470
v 0.177298 5.367464 -0.265345
v 0.300388 5.276134 -0.449563
v 0.406088 5.130849 -0.607754
v 0.487194 4.941511 -0.729138
v 0.538180 4.721021 -0.805443
v 0.057537 -5.398614 -0.057537
v 0.707107 -4.484407 -0.707107
v 0.225658 -5.367464 -0.225658
v 0.382322 -5.276134 -0.382322
v 0.516852 -5.130849 -0.516852
v 0.620081 -4.941511 -0.620081
v 0.684973 -4.721021 -0.684973
v 0.057537 5.398614 -0.057537
v 0.707107 4.484407 -0.707107
v 0.225658 5.367464 -0.225658
v 0.382322 5.276134 -0.382322
v 0.516852 5.130849 -0.516852
v 0.620081 4.941511 -0.620081
v 0.684973 4.721021 -0.684973
v 0.067656 -5.398614 -0.045207
v 0.831470 -4.484407 -0.555570
v 0.265345 -5.367464 -0.177298
v 0.449563 -5.276134 -0.300388
v 0.607754 -5.130849 -0.406088
v 0.729138 -4.941511 -0.487194
v 0.805443 -4.721021 -0.538180
v 0.067656 5.398614 -0.045207
v 0.831470 4.484407 -0.555570
v 0.265345 5.367464 -0.177298
v 0.449563 5.276134 -0.300388
v 0.607754 5.130849 -0.406088
v 0.729138 4.941511 -0.487194
v 0.805443 4.721021 -0.538180
v 0.075175 -5.398614 -0.031139
v 0.923880 -4.484407 -0.382683
v 0.294836 -5.367464 -0.122125
v 0.499527 -5.276134 -0.206911
v 0.675300 -5.130849 -0.279718
v 0.810175 -4.941511 -0.335585
v 0.894961 -4.721021 -0.370705
v 0.075175 5.398614 -0.031139
v 0.923880 4.484407 -0.382683
v 0.294836 5.367464 -0.122125
v 0.499527 5.276134 -0.206911
v 0.675300 5.130849 -0.279718
v 0.810175 4.941511 -0.335585
v 0.894961 4.721021 -0.370705
v 0.079806 -5.398614 -0.015874
v 0.980785 -4.484407 -0.195090
v 0.312996 -5.367464 -0.062259
v 0.530295 -5.276134 -0.105482
v 0.716894 -5.130849 -0.142599
v 0.860077 -4.941511 -0.171080
v 0.950085 -4.721021 -0.188984
v 0.079806 5.398614 -0.015874
v 0.980785 4.484407 -0.195090
v 0.312996 5.367464 -0.062259
v 0.530295 5.276134 -0.105482
v 0.716894 5.130849 -0.142599
v 0.860077 4.941511 -0.171080
v 0.950085 4.721021 -0.188984
v 0.081369 -5.398614 0.000000
v 1.000000 -4.484407 0.000000
v 0.319128 -5.367464 0.000000
v 0.540685 -5.276134 0.000000
v 0.730939 -5.130849 0.000000
v 0.876927 -4.941511 0.000000
v 0.968698 -4.721021 0.000000
v 0.081369 5.398614 0.000000
v 1.000000 4.484407 0.000000
v 0.319128 5.367464 0.000000
v 0.540685 5.276134 0.000000
v 0.730939 5.130849 0.000000
v 0.876927 4.941511 0.000000
v 0.968698 4.721021 0.000000
v 0.079806 -5.398614 0.015874
v 0.980785 -4.484407 0.195090
v 0.312996 -5.367464 0.062259
v 0.530295 -5.276134 0.105482
v 0.716894 -5.130849 0.142599
v 0.860077 -4.941511 0.171080
v 0.950085 -4.721021 0.188984
v 0.079806 5.398614 0.015874
v 0.980785 4.484407 0.195090
v 0.312996 5.367464 0.062259
v 0.530295 5.276134 0.105482
v 0.716894 5.130849 0.142599
v 0.860077 4.941511 0.171080
v 0.950085 4.721021 0.188984
v 0.075175 -5.398614 0.031139
v 0.923880 -4.484407 0.382683
v 0.294836 -5.367464 0.122125
v 0.499527 -5.276134 0.206911
v 0.675300 -5.130849 0.279718
v 0.810175 -4.941511 0.335585
v 0.894961 -4.721021 0.370705
v 0.075175 5.398614 0.031139
v 0.923880 4.484407 0.382683
v 0.294836 5.367464 0.122125
v 0.499527 5.276134 0.206911
v 0.675300 5.130849 0.279718
v 0.810175 4.941511 0.335585
v 0.894961 4.721021 0.370705
v 0.067656 -5.398614 0.045207
v 0.831470 -4.484407 0.555570
v 0.265345 -5.367464 0.177298
v 0.449563 -5.276134 0.300388
v 0.607754 -5.130849 0.406088
v 0.729138 -4.941511 0.487194
v 0.805443 -4.721021 0.538180
v 0.067656 5.398614 0.045207
v 0.831470 4.484407 0.555570
v 0.265345 5.367464 0.177298
v 0.449563 5.276134 0.300388
v 0.607754 5.130849 0.406088
v 0.729138 4.941511 0.487194
v 0.805443 4.721021 0.538180
v 0.057537 -5.398614 0.057537
v 0.707107 -4.484407 0.707107
v 0.225658 -5.367464 0.225658
v 0.382322 -5.276134 0.382322
v 0.516852 -5.130849 0.516852
v 0.620081 -4.941511 0.620081
v 0.684973 -4.721021 0.684973
v 0.057537 5.398614 0.057537
v 0.707107 4.484407 0.707107
v 0.225658 5.367464 0.225658
v 0.382322 5.276134 0.382322
v 0.516852 5.130849 0.516852
v 0.620081 4.941511 0.620081
v 0.684973 4.721021 0.684973
v 0.045207 -5.398614 0.067656
v 0.555570 -4.484407 0.831470
v 0.177298 -5.367464 0.265345
v 0.300388 -5.276134 0.449563
v 0.406088 -5.130849 0.607754
v 0.487194 -4.941511 0.729138
v 0.538180 -4.721021 0.805443
v 0.045207 5.398614 0.067656
v 0.555570 4.484407 0.831470
v 0.177298 5.367464 0.265345
v 0.300388 5.276134 0.449563
v 0.406088 5.130849 0.607754
v 0.487194 4.941511 0.729138
v 0.538180 4.721021 0.805443
v 0.031139 -5.398614 0.075175
v 0.382683 -4.484407 0.923880
v 0.122125 -5.367464 0.294836
v 0.206911 -5.276134 0.499527
v 0.279718 -5.130849 0.675300
v 0.335585 -4.941511 0.810175
v 0.370705 -4.721021 0.894961
v 0.031139 5.398614 0.075175
v 0.382683 4.484407 0.923880
v 0.122125 5.367464 0.294836
v 0.206911 5.276134 0.499527
v 0.279718 5.130849 0.675300
v 0.335585 4.941511 0.810175
v 0.370705 4.721021 0.894961
v 0.015874 -5.398614 0.079806
v 0.195090 -4.484407 0.980785
v 0.062259 -5.367464 0.312996
v 0.105482 -5.276134 0.530295
v 0.142599 -5.130849 0.716894
v 0.171080 -4.941511 0.860077
v 0.188984 -4.721021 0.950085
v 0.015874 5.398614 0.079806
v 0.195090 4.484407 0.980785
v 0.062259 5.367464 0.312996
v 0.105482 5.276134 0.530295
v 0.142599 5.130849 0.716894
v 0.171080 4.941511 0.860077
v 0.188984 4.721021 0.950085
v 0.000000 -5.398614 0.081369
v 0.000000 -4.484407 1.000000
v 0.000000 -5.367464 0.319128
v 0.000000 -5.276134 0.540685
v 0.000000 -5.130849 0.730939
v 0.000000 -4.941511 0.876927
v 0.000000 -4.721021 0.968698
v 0.000000 5.398614 0.081369
v 0.000000 4.484407 1.000000
v 0.000000 5.367464 0.319128
v 0.000000 5.276134 0.540685
v 0.000000 5.130849 0.730939
v 0.000000 4.941511 0.876927
v 0.000000 4.721021 0.968698
v -0.015874 -5.398614 0.079806
v -0.195090 -4.484407 0.980785
v -0.062259 -5.367464 0.312996
v -0.105482 -5.276134 0.530295
v -0.142599 -5.130849 0.716894
v -0.171080 -4.941511 0.860077
v -0.188984 -4.721021 0.950085
v -0.015874 5.398614 0.079806
v -0.195090 4.484407 0.980785
v -0.062259 5.367464 0.312996
v -0.105482 5.276134 0.530295
v -0.142599 5.130849 0.716894
v -0.171080 4.941511 0.860077
v -0.188984 4.721021 0.950085
v -0.031139 -5.398614 0.075175
v -0.382683 -4.484407 0.923880
v -0.122125 -5.367464 0.294836
v -0.206911 -5.276134 0.499527
v -0.279718 -5.130849 0.675300
v -0.335585 -4.941511 0.810175
v -0.370705 -4.721021 0.894961
v -0.031139 5.398614 0.075175
v -0.382683 4.484407 0.923880
v -0.122125 5.367464 0.294836
v -0.206911 5.276134 0.499527
v -0.279718 5.130849 0.675300
v -0.335585 4.941511 0.810175
v -0.370705 4.721021 0.894961
v -0.045207 -5.398614 0.067656
v -0.555570 -4.484407 0.831470
v -0.177298 -5.367464 0.265345
v -0.300388 -5.276134 0.449563
v -0.406088 -5.130849 0.607754
v -0.487194 -4.941511 0.729138
v -0.538180 -4.721021 0.805443
v -0.045207 5.398614 0.067656
v -0.555570 4.484407 0.831470
v -0.177298 5.367464 0.265345
v -0.300388 5.276134 0.449563
v -0.406088 5.130849 0.607754
v -0.487194 4.941511 0.729138
v -0.538180 4.721021 0.805443
v -0.057537 -5.398614 0.057537
v -0.707107 -4.484407 0.707107
v -0.225658 -5.367464 0.225658
v -0.382322 -5.276134 0.382322
v -0.516852 -5.130849 0.516852
v -0.620081 -4.941511 0.620081
v -0.684973 -4.721021 0.684973
v -0.057537 5.398614 0.057537
v -0.707107 4.484407 0.707107
v -0.225658 5.367464 0.225658
v -0.382322 5.276134 0.382322
v -0.516852 5.130849 0.516852
v -0.620081 4.941511 0.620081
v -0.684973 4.721021 0.684973
v -0.067656 -5.398614 0.045207
v -0.831470 -4.484407 0.555570
v -0.265345 -5.367464 0.177298
v -0.449563 -5.276134 0.300388
v -0.607754 -5.130849 0.406088
v -0.729138 -4.941511 0.487194
v -0.805443 -4.721021 0.538180
v -0.067656 5.398614 0.045207
v -0.831470 4.484407 0.555570
v -0.265345 5.367464 0.177298
v -0.449563 5.276134 0.300388
v -0.607754 5.130849 0.406088
v -0.729138 4.941511 0.487194
v -0.805443 4.721021 0.538180
v -0.075175 -5.398614 0.031139
v -0.923880 -4.484407 0.382683
v -0.294836 -5.367464 0.122125
v -0.499527 -5.276134 0.206911
v -0.675300 -5.130849 0.279718
v -0.810175 -4.941511 0.335585
v -0.894961 -4.721021 0.370705
v -0.075175 5.398614 0.031139
v -0.923880 4.484407 0.382683
v -0.294836 5.367464 0.122125
v -0.499527 5.276134 0.206911
v -0.675300 5.130849 0.279718
v -0.810175 4.941511 0.335585
v -0.894961 4.721021 0.370705
v -0.079806 -5.398614 0.015874
v -0.980785 -4.484407 0.195090
v -0.312996 -5.367464 0.062259
v -0.530295 -5.276134 0.105482
v -0.716894 -5.130849 0.142599
v -0.860077 -4.941511 0.171080
v -0.950085 -4.721021 0.188984
v -0.079806 5.398614 0.015874
v -0.980785 4.484407 0.195090
v -0.312996 5.367464 0.062259
v -0.530295 5.276134 0.105482
v -0.716894 5.130849 0.142599
v -0.860077 4.941511 0.171080
v -0.950085 4.721021 0.188984
v -0.081369 -5.398614 0.000000
v -1.000000 -4.484407 0.000000
v -0.319128 -5.367464 0.000000
v -0.540685 -5.276134 0.000000
v -0.730939 -5.130849 0.000000
v -0.876927 -4.941511 0.000000
v -0.968698 -4.721021 0.000000
v -0.081369 5.398614 0.000000
v -1.000000 4.484407 0.000000
v -0.319128 5.367464 0.000000
v -0.540685 5.276134 0.000000
v -0.730939 5.130849 0.000000
v -0.876927 4.941511 0.000000
v -0.968698 4.721021 0.000000
v -0.079806 -5.398614 -0.015874
v -0.980785 -4.484407 -0.195090
v -0.312996 -5.367464 -0.062259
v -0.530295 -5.276134 -0.105482
v -0.716894 -5.130849 -0.142599
v -0.860077 -4.941511 -0.171080
v -0.950085 -4.721021 -0.188984
v -0.079806 5.398614 -0.015874
v -0.980785 4.484407 -0.195090
v -0.312996 5.367464 -0.062259
v -0.530295 5.276134 -0.105482
v -0.716894 5.130849 -0.142599
v -0.860077 4.941511 -0.171080
v -0.950085 4.721021 -0.188984
v -0.075175 -5.398614 -0.031139
v -0.923880 -4.484407 -0.382683
v -0.294836 -5.367464 -0.122125
v -0.499527 -5.276134 -0.206911
v -0.675300 -5.130849 -0.279718
v -0.810175 -4.941511 -0.335585
v -0.894961 -4.721021 -0.370705
v -0.075175 5.398614 -0.031139
v -0.923880 4.484407 -0.382683
v -0.294836 5.367464 -0.122125
v -0.499527 5.276134 -0.206911
v -0.675300 5.130849 -0.279718
v -0.810175 4.941511 -0.335585
v -0.894961 4.721021 -0.370705
v -0.067656 -5.398614 -0.045207
v -0.831470 -4.484407 -0.555570
v -0.265345 -5.367464 -0.177298
v -0.449563 -5.276134 -0.300388
v -0.607754 -5.130849 -0.406088
v -0.729138 -4.941511 -0.487194
v -0.805443 -4.721021 -0.538180
v -0.067656 5.398614 -0.045207
v -0.831470 4.484407 -0.555570
v -0.265345 5.367464 -0.177298
v -0.449563 5.276134 -0.300388
v -0.607754 5.130849 -0.406088
v -0.729138 4.941511 -0.487194
v -0.805443 4.721021 -0.538180
v -0.057537 -5.398614 -0.057537
v -0.707107 -4.484407 -0.707107
v -0.225658 -5.367464 -0.225658
v -0.382322 -5.276134 -0.382322
v -0.516852 -5.130849 -0.516852
v -0.620081 -4.941511 -0.620081
v -0.684973 -4.721021 -0.684973
v -0.057537 5.398614 -0.057537
v -0.707107 4.484407 -0.707107
v -0.225658 5.367464 -0.225658
v -0.382322 5.276134 -0.382322
v -0.516852 5.130849 -0.516852
v -0.620081 4.941511 -0.620081
v -0.684973 4.721021 -0.684973
v -0.045207 -5.398614 -0.067656
v -0.555570 -4.484407 -0.831470
v -0.177298 -5.367464 -0.265345
v -0.300388 -5.276134 -0.449563
v -0.406088 -5.130849 -0.607754
v -0.487194 -4.941511 -0.729138
v -0.538180 -4.721021 -0.805443
v -0.045207 5.398614 -0.067656
v -0.555570 4.484407 -0.831470
v -0.177298 5.367464 -0.265345
v -0.300388 5.276134 -0.449563
v -0.406088 5.130849 -0.607754
v -0.487194 4.941511 -0.729138
v -0.538180 4.721021 -0.805443
v -0.031139 -5.398614 -0.075175
v -0.382683 -4.484407 -0.923880
v -0.122125 -5.367464 -0.294836
v -0.206911 -5.276134 -0.499527
v -0.279718 -5.130849 -0.675300
v -0.335585 -4.941511 -0.810175
v -0.370705 -4.721021 -0.894961
v -0.031139 5.398614 -0.075175
v -0.382683 4.484407 -0.923880
v -0.122125 5.367464 -0.294836
v -0.206911 5.276134 -0.499527
v -0.279718 5.130849 -0.675300
v -0.335585 4.941511 -0.810175
v -0.370705 4.721021 -0.894961
v -0.015874 -5.398614 -0.079806
v -0.195090 -4.484407 -0.980785
v -0.062259 -5.367464 -0.312996
v -0.105482 -5.276134 -0.530295
v -0.142599 -5.130849 -0.716894
v -0.171080 -4.941511 -0.860077
v -0.188984 -4.721021 -0.950085
v -0.015874 5.398614 -0.079806
v -0.195090 4.484407 -0.980785
v -0.062259 5.367464 -0.312996
v -0.105482 5.276134 -0.530295
v -0.142599 5.130849 -0.716894
v -0.171080 4.941511 -0.860077
v -0.188984 4.721021 -0.950085
v 0.000000 -4.094459 -1.000000
v 0.000000 -3.704510 -1.000000
v 0.000000 -3.314562 -1.000000
v 0.000000 -2.924613 -1.000000
v 0.000000 -2.534665 -1.000000
v 0.000000 -2.144717 -1.000000
v 0.000000 -1.754768 -1.000000
v 0.000000 -1.364820 -1.000000
v 0.000000 -0.974871 -1.000000
v 0.000000 -0.584923 -1.000000
v 0.000000 -0.194974 -1.000000
v 0.000000 0.194974 -1.000000
v 0.000000 0.584923 -1.000000
v 0.000000 0.974871 -1.000000
v 0.000000 1.364820 -1.000000
v 0.000000 1.754768 -1.000000
v 0.000000 2.144716 -1.000000
v 0.000000 2.534665 -1.000000
v 0.000000 2.924613 -1.000000
v 0.000000 3.314561 -1.000000
v 0.000000 3.704510 -1.000000
v 0.000000 4.094459 -1.000000
v 0.195090 4.094459 -0.980785
v 0.195090 3.704510 -0.980785
v 0.195090 3.314562 -0.980785
v 0.195090 2.924613 -0.980785
v 0.195090 2.534665 -0.980785
v 0.195090 2.144717 -0.980785
v 0.195090 1.754768 -0.980785
v 0.195090 1.364820 -0.980785
v 0.195090 0.974871 -0.980785
v 0.195090 0.584923 -0.980785
v 0.195090 0.194974 -0.980785
v 0.195090 -0.194974 -0.980785
v 0.195090 -0.584923 -0.980785
v 0.195090 -0.974871 -0.980785
v 0.195090 -1.364820 -0.980785
v 0.195090 -1.754768 -0.980785
v 0.195090 -2.144716 -0.980785
v 0.195090 -2.534665 -0.980785
v 0.195090 -2.924613 -0.980785
v 0.195090 -3.314561 -0.980785
v 0.195090 -3.704510 -0.980785
v 0.195090 -4.094459 -0.980785
v -0.195090 -4.094459 -0.980785
v -0.195090 -3.704510 -0.980785
v -0.195090 -3.314562 -0.980785
v -0.195090 -2.924613 -0.980785
v -0.195090 -2.534665 -0.980785
v -0.195090 -2.144717 -0.980785
v -0.195090 -1.754768 -0.980785
v -0.195090 -1.364820 -0.980785
v -0.195090 -0.974871 -0.980785
v -0.195090 -0.584923 -0.980785
v -0.195090 -0.194974 -0.980785
v -0.195090 0.194974 -0.980785
v -0.195090 0.584923 -0.980785
v -0.195090 0.974871 -0.980785
v -0.195090 1.364820 -0.980785
v -0.195090 1.754768 -0.980785
v -0.195090 2.144716 -0.980785
v -0.195090 2.534665 -0.980785
v -0.195090 2.924613 -0.980785
v -0.195090 3.314561 -0.980785
v -0.195090 3.704510 -0.980785
v -0.195090 4.094459 -0.980785
v 0.382683 4.094459 -0.923880
v 0.382683 3.704510 -0.923880
v 0.382683 3.314562 -0.923880
v 0.382683 2.924613 -0.923880
v 0.382683 2.534665 -0.923880
v 0.382683 2.144717 -0.923880
v 0.382683 1.754768 -0.923880
v 0.382683 1.364820 -0.923880
v 0.382683 0.974871 -0.923880
v 0.382683 0.584923 -0.923880
v 0.382683 0.194974 -0.923880
v 0.382683 -0.194974 -0.923880
v 0.382683 -0.584923 -0.923880
v 0.382683 -0.974871 -0.923880
v 0.382683 -1.364820 -0.923880
v 0.382683 -1.754768 -0.923880
v 0.382683 -2.144716 -0.923880
v 0.382683 -2.534665 -0.923880
v 0.382683 -2.924613 -0.923880
v 0.382683 -3.314561 -0.923880
v 0.382683 -3.704510 -0.923880
v 0.382683 -4.094459 -0.923880
v 0.555570 4.094459 -0.831470
v 0.555570 3.704510 -0.831470
v 0.555570 3.314562 -0.831470
v 0.555570 2.924613 -0.831470
v 0.555570 2.534665 -0.831470
v 0.555570 2.144717 -0.831470
v 0.555570 1.754768 -0.831470
v 0.555570 1.364820 -0.831470
v 0.555570 0.974871 -0.831470
v 0.555570 0.584923 -0.831470
v 0.555570 0.194974 -0.831470
v 0.555570 -0.194974 -0.831470
v 0.555570 -0.584923 -0.831470
v 0.555570 -0.974871 -0.831470
v 0.555570 -1.364820 -0.831470
v 0.555570 -1.754768 -0.831470
v 0.555570 -2.144716 -0.831470
v 0.555570 -2.534665 -0.831470
v 0.555570 -2.924613 -0.831470
v 0.555570 -3.314561 -0.831470
v 0.555570 -3.704510 -0.831470
v 0.555570 -4.094459 -0.831470
v 0.707107 4.094459 -0.707107
v 0.707107 3.704510 -0.707107
v 0.707107 3.314562 -0.707107
v 0.707107 2.924613 -0.707107
v 0.707107 2.534665 -0.707107
v 0.707107 2.144717 -0.707107
v 0.707107 1.754768 -0.707107
v 0.707107 1.364820 -0.707107
v 0.707107 0.974871 -0.707107
v 0.707107 0.584923 -0.707107
v 0.707107 0.194974 -0.707107
v 0.707107 -0.194974 -0.707107
v 0.707107 -0.584923 -0.707107
v 0.707107 -0.974871 -0.707107
v 0.707107 -1.364820 -0.707107
v 0.707107 -1.754768 -0.707107
v 0.707107 -2.144716 -0.707107
v 0.707107 -2.534665 -0.707107
v 0.707107 -2.924613 -0.707107
v 0.707107 -3.314561 -0.707107
v 0.707107 -3.704510 -0.707107
v 0.707107 -4.094459 -0.707107
v 0.831470 4.094459 -0.555570
v 0.831470 3.704510 -0.555570
v 0.831470 3.314562 -0.555570
v 0.831470 2.924613 -0.555570
v 0.831470 2.534665 -0.555570
v 0.831470 2.144717 -0.555570
v 0.831470 1.754768 -0.555570
v 0.831470 1.364820 -0.555570
v 0.831470 0.974871 -0.555570
v 0.831470 0.584923 -0.555570
v 0.831470 0.194974 -0.555570
v 0.831470 -0.194974 -0.555570
v 0.831470 -0.584923 -0.555570
v 0.831470 -0.974871 -0.555570
v 0.831470 -1.364820 -0.555570
v 0.831470 -1.754768 -0.555570
v 0.831470 -2.144716 -0.555570
v 0.831470 -2.534665 -0.555570
v 0.831470 -2.924613 -0.555570
v 0.831470 -3.314561 -0.555570
v 0.831470 -3.704510 -0.555570
v 0.831470 -4.094459 -0.555570
v 0.923880 4.094459 -0.382683
v 0.923880 3.704510 -0.382683
v 0.923880 3.314562 -0.382683
v 0.923880 2.924613 -0.382683
v 0.923880 2.534665 -0.382683
v 0.923880 2.144717 -0.382683
v 0.923880 1.754768 -0.382683
v 0.923880 1.364820 -0.382683
v 0.923880 0.974871 -0.382683
v 0.923880 0.584923 -0.382683
v 0.923880 0.194974 -0.382683
v 0.923880 -0.194974 -0.382683
v 0.923880 -0.584923 -0.382683
v 0.923880 -0.974871 -0.382683
v 0.923880 -1.364820 -0.382683
v 0.923880 -1.754768 -0.382683
v 0.923880 -2.144716 -0.382683
v 0.923880 -2.534665 -0.382683
v 0.923880 -2.924613 -0.382683
v 0.923880 -3.314561 -0.382683
v 0.923880 -3.704510 -0.382683
v 0.923880 -4.094459 -0.382683
v 0.980785 4.094459 -0.195090
v 0.980785 3.704510 -0.195090
v 0.980785 3.314562 -0.195090
v 0.980785 2.924613 -0.195090
v 0.980785 2.534665 -0.195090
v 0.980785 2.144717 -0.195090
v 0.980785 1.754768 -0.195090
v 0.980785 1.364820 -0.195090
v 0.980785 0.974871 -0.195090
v 0.980785 0.584923 -0.195090
v 0.980785 0.194974 -0.195090
v 0.980785 -0.194974 -0.195090
v 0.980785 -0.584923 -0.195090
v 0.980785 -0.974871 -0.195090
v 0.980785 -1.364820 -0.195090
v 0.980785 -1.754768 -0.195090
v 0.980785 -2.144716 -0.195090
v 0.980785 -2.534665 -0.195090
v 0.980785 -2.924613 -0.195090
v 0.980785 -3.314561 -0.195090
v 0.980785 -3.704510 -0.195090
v 0.980785 -4.094459 -0.195090
v 1.000000 4.094459 0.000000
v 1.000000 3.704510 0.000000
v 1.000000 3.314562 0.000000
v 1.000000 2.924613 0.000000
v 1.000000 2.534665 0.000000
v 1.000000 2.144717 0.000000
v 1.000000 1.754768 0.000000
v 1.000000 1.364820 0.000000
v 1.000000 0.974871 0.000000
v 1.000000 0.584923 0.000000
v 1.000000 0.194974 0.000000
v 1.000000 -0.194974 0.000000
v 1.000000 -0.584923 0.000000
v 1.000000 -0.974871 0.000000
v 1.000000 -1.364820 0.000000
v 1.000000 -1.754768 0.000000
v 1.000000 -2.144716 0.000000
v 1.000000 -2.534665 0.000000
v 1.000000 -2.924613 0.000000
v 1.000000 -3.314561 0.000000
v 1.000000 -3.704510 0.000000
v 1.000000 -4.094459 0.000000
v 0.980785 4.094459 0.195090
v 0.980785 3.704510 0.195090
v 0.980785 3.314562 0.195090
v 0.980785 2.924613 0.195090
v 0.980785 2.534665 0.195090
v 0.980785 2.144717 0.195090
v 0.980785 1.754768 0.195090
v 0.980785 1.364820 0.195090
v 0.980785 0.974871 0.195090
v 0.980785 0.584923 0.195090
v 0.980785 0.194974 0.195090
v 0.980785 -0.194974 0.195090
v 0.980785 -0.584923 0.195090
v 0.980785 -0.974871 0.195090
v 0.980785 -1.364820 0.195090
v 0.980785 -1.754768 0.195090
v 0.980785 -2.144716 0.195090
v 0.980785 -2.534665 0.195090
v 0.980785 -2.924613 0.195090
v 0.980785 -3.314561 0.195090
v 0.980785 -3.704510 0.195090
v 0.980785 -4.094459 0.195090
v 0.923880 4.094459 0.382683
v 0.923880 3.704510 0.382683
v 0.923880 3.314562 0.382683
v 0.923880 2.924613 0.382683
v 0.923880 2.534665 0.382683
v 0.923880 2.144717 0.382683
v 0.923880 1.754768 0.382683
v 0.923880 1.364820 0.382683
v 0.923880 0.974871 0.382683
v 0.923880 0.584923 0.382683
v 0.923880 0.194974 0.382683
v 0.923880 -0.194974 0.382683
v 0.923880 -0.584923 0.382683
v 0.923880 -0.974871 0.382683
v 0.923880 -1.364820 0.382683
v 0.923880 -1.754768 0.382683
v 0.923880 -2.144716 0.382683
v 0.923880 -2.534665 0.382683
v 0.923880 -2.924613 0.382683
v 0.923880 -3.314561 0.382683
v 0.923880 -3.704510 0.382683
v 0.923880 -4.094459 0.382683
v 0.831470 4.094459 0.555570
v 0.831470 3.704510 0.555570
v 0.831470 3.314562 0.555570
v 0.831470 2.924613 0.555570
v 0.831470 2.534665 0.555570
v 0.831470 2.144717 0.555570
v 0.831470 1.754768 0.555570
v 0.831470 1.364820 0.555570
v 0.831470 0.974871 0.555570
v 0.831470 0.584923 0.555570
v 0.831470 0.194974 0.555570
v 0.831470 -0.194974 0.555570
v 0.831470 -0.584923 0.555570
v 0.831470 -0.974871 0.555570
v 0.831470 -1.364820 0.555570
v 0.831470 -1.754768 0.555570
v 0.831470 -2.144716 0.555570
v 0.831470 -2.534665 0.555570
v 0.831470 -2.924613 0.555570
v 0.831470 -3.314561 0.555570
v 0.831470 -3.704510 0.555570
v 0.831470 -4.094459 0.555570
v 0.707107 4.094459 0.707107
v 0.707107 3.704510 0.707107
v 0.707107 3.314562 0.707107
v 0.707107 2.924613 0.707107
v 0.707107 2.534665 0.707107
v 0.707107 2.144717 0.707107
v 0.707107 1.754768 0.707107
v 0.707107 1.364820 0.707107
v 0.707107 0.974871 0.707107
v 0.707107 0.584923 0.707107
v 0.707107 0.194974 0.707107
v 0.707107 -0.194974 0.707107
v 0.707107 -0.584923 0.707107
v 0.707107 -0.974871 0.707107
v 0.707107 -1.364820 0.707107
v 0.707107 -1.754768 0.707107
v 0.707107 -2.144716 0.707107
v 0.707107 -2.534665 0.707107
v 0.707107 -2.924613 0.707107
v 0.707107 -3.314561 0.707107
v 0.707107 -3.704510 0.707107
v 0.707107 -4.094459 0.707107
v 0.555570 4.094459 0.831470
v 0.555570 3.704510 0.831470
v 0.555570 3.314562 0.831470
v 0.555570 2.924613 0.831470
v 0.555570 2.534665 0.831470
v 0.555570 2.144717 0.831470
v 0.555570 1.754768 0.831470
v 0.555570 1.364820 0.831470
v 0.555570 0.974871 0.831470
v 0.555570 0.584923 0.831470
v 0.555570 0.194974 0.831470
v 0.555570 -0.194974 0.831470
v 0.555570 -0.584923 0.831470
v 0.555570 -0.974871 0.831470
v 0.555570 -1.364820 0.831470
v 0.555570 -1.754768 0.831470
v 0.555570 -2.144716 0.831470
v 0.555570 -2.534665 0.831470
v 0.555570 -2.924613 0.831470
v 0.555570 -3.314561 0.831470
v 0.555570 -3.704510 0.831470
v 0.555570 -4.094459 0.831470
v 0.382683 4.094459 0.923880
v 0.382683 3.704510 0.923880
v 0.382683 3.314562 0.923880
v 0.382683 2.924613 0.923880
v 0.382683 2.534665 0.923880
v 0.382683 2.144717 0.923880
v 0.382683 1.754768 0.923880
v 0.382683 1.364820 0.923880
v 0.382683 0.974871 0.923880
v 0.382683 0.584923 0.923880
v 0.382683 0.194974 0.923880
v 0.382683 -0.194974 0.923880
v 0.382683 -0.584923 0.923880
v 0.382683 -0.974871 0.923880
v 0.382683 -1.364820 0.923880
v 0.382683 -1.754768 0.923880
v 0.382683 -2.144716 0.923880
v 0.382683 -2.534665 0.923880
v 0.382683 -2.924613 0.923880
v 0.382683 -3.314561 0.923880
v 0.382683 -3.704510 0.923880
v 0.382683 -4.094459 0.923880
v 0.195090 4.094459 0.980785
v 0.195090 3.704510 0.980785
v 0.195090 3.314562 0.980785
v 0.195090 2.924613 0.980785
v 0.195090 2.534665 0.980785
v 0.195090 2.144717 0.980785
v 0.195090 1.754768 0.980785
v 0.195090 1.364820 0.980785
v 0.195090 0.974871 0.980785
v 0.195090 0.584923 0.980785
v 0.195090 0.194974 0.980785
v 0.195090 -0.194974 0.980785
v 0.195090 -0.584923 0.980785
v 0.195090 -0.974871 0.980785
v 0.195090 -1.364820 0.980785
v 0.195090 -1.754768 0.980785
v 0.195090 -2.144716 0.980785
v 0.195090 -2.534665 0.980785
v 0.195090 -2.924613 0.980785
v 0.195090 -3.314561 0.980785
v 0.195090 -3.704510 0.980785
v 0.195090 -4.094459 0.980785
v 0.000000 4.094459 1.000000
v 0.000000 3.704510 1.000000
v 0.000000 3.314562 1.000000
v 0.000000 2.924613 1.000000
v 0.000000 2.534665 1.000000
v 0.000000 2.144717 1.000000
v 0.000000 1.754768 1.000000
v 0.000000 1.364820 1.000000
v 0.000000 0.974871 1.000000
v 0.000000 0.584923 1.000000
v 0.000000 0.194974 1.000000
v 0.000000 -0.194974 1.000000
v 0.000000 -0.584923 1.000000
v 0.000000 -0.974871 1.000000
v 0.000000 -1.364820 1.000000
v 0.000000 -1.754768 1.000000
v 0.000000 -2.144716 1.000000
v 0.000000 -2.534665 1.000000
v 0.000000 -2.924613 1.000000
v 0.000000 -3.314561 1.000000
v 0.000000 -3.704510 1.000000
v 0.000000 -4.094459 1.000000
v -0.195090 4.094459 0.980785
v -0.195090 3.704510 0.980785
v -0.195090 3.314562 0.980785
v -0.195090 2.924613 0.980785
v -0.195090 2.534665 0.980785
v -0.195090 2.144717 0.980785
v -0.195090 1.754768 0.980785
v -0.195090 1.364820 0.980785
v -0.195090 0.974871 0.980785
v -0.195090 0.584923 0.980785
v -0.195090 0.194974 0.980785
v -0.195090 -0.194974 0.980785
v -0.195090 -0.584923 0.980785
v -0.195090 -0.974871 0.980785
v -0.195090 -1.364820 0.980785
v -0.195090 -1.754768 0.980785
v -0.195090 -2.144716 0.980785
v -0.195090 -2.534665 0.980785
v -0.195090 -2.924613 0.980785
v -0.195090 -3.314561 0.980785
v -0.195090 -3.704510 0.980785
v -0.195090 -4.094459 0.980785
v -0.382683 4.094459 0.923880
v -0.382683 3.704510 0.923880
v -0.382683 3.314562 0.923880
v -0.382683 2.924613 0.923880
v -0.382683 2.534665 0.923880
v -0.382683 2.144717 0.923880
v -0.382683 1.754768 0.923880
v -0.382683 1.364820 0.923880
v -0.382683 0.974871 0.923880
v -0.382683 0.584923 0.923880
v -0.382683 0.194974 0.923880
v -0.382683 -0.194974 0.923880
v -0.382683 -0.584923 0.923880
v -0.382683 -0.974871 0.923880
v -0.382683 -1.364820 0.923880
v -0.382683 -1.754768 0.923880
v -0.382683 -2.144716 0.923880
v -0.382683 -2.534665 0.923880
v -0.382683 -2.924613 0.923880
v -0.382683 -3.314561 0.923880
v -0.382683 -3.704510 0.923880
v -0.382683 -4.094459 0.923880
v -0.555570 4.094459 0.831470
v -0.555570 3.704510 0.831470
v -0.555570 3.314562 0.831470
v -0.555570 2.924613 0.831470
v -0.555570 2.534665 0.831470
v -0.555570 2.144717 0.831470
v -0.555570 1.754768 0.831470
v -0.555570 1.364820 0.831470
v -0.555570 0.974871 0.831470
v -0.555570 0.584923 0.831470
v -0.555570 0.194974 0.831470
v -0.555570 -0.194974 0.831470
v -0.555570 -0.584923 0.831470
v -0.555570 -0.974871 0.831470
v -0.555570 -1.364820 0.831470
v -0.555570 -1.754768 0.831470
v -0.555570 -2.144716 0.831470
v -0.555570 -2.534665 0.831470
v -0.555570 -2.924613 0.831470
v -0.555570 -3.314561 0.831470
v -0.555570 -3.704510 0.831470
v -0.555570 -4.094459 0.831470
v -0.707107 4.094459 0.707107
v -0.707107 3.704510 0.707107
v -0.707107 3.314562 0.707107
v -0.707107 2.924613 0.707107
v -0.707107 2.534665 0.707107
v -0.707107 2.144717 0.707107
v -0.707107 1.754768 0.707107
v -0.707107 1.364820 0.707107
v -0.707107 0.974871 0.707107
v -0.707107 0.584923 0.707107
v -0.707107 0.194974 0.707107
v -0.707107 -0.194974 0.707107
v -0.707107 -0.584923 0.707107
v -0.707107 -0.974871 0.707107
v -0.707107 -1.364820 0.707107
v -0.707107 -1.754768 0.707107
v -0.707107 -2.144716 0.707107
v -0.707107 -2.534665 0.707107
v -0.707107 -2.924613 0.707107
v -0.707107 -3.314561 0.707107
v -0.707107 -3.704510 0.707107
v -0.707107 -4.094459 0.707107
v -0.831470 4.094459 0.555570
v -0.831470 3.704510 0.555570
v -0.831470 3.314562 0.555570
v -0.831470 2.924613 0.555570
v -0.831470 2.534665 0.555570
v -0.831470 2.144717 0.555570
v -0.831470 1.754768 0.555570
v -0.831470 1.364820 0.555570
v -0.831470 0.974871 0.555570
v -0.831470 0.584923 0.555570
v -0.831470 0.194974 0.555570
v -0.831470 -0.194974 0.555570
v -0.831470 -0.584923 0.555570
v -0.831470 -0.974871 0.555570
v -0.831470 -1.364820 0.555570
v -0.831470 -1.754768 0.555570
v -0.831470 -2.144716 0.555570
v -0.831470 -2.534665 0.555570
v -0.831470 -2.924613 0.555570
v -0.831470 -3.314561 0.555570
v -0.831470 -3.704510 0.555570
v -0.831470 -4.094459 0.555570
v -0.923880 4.094459 0.382683
v -0.923880 3.704510 0.382683
v -0.923880 3.314562 0.382683
v -0.923880 2.924613 0.382683
v -0.923880 2.534665 0.382683
v -0.923880 2.144717 0.382683
v -0.923880 1.754768 0.382683
v -0.923880 1.364820 0.382683
v -0.923880 0.974871 0.382683
v -0.923880 0.584923 0.382683
v -0.923880 0.194974 0.382683
v -0.923880 -0.194974 0.382683
v -0.923880 -0.584923 0.382683
v -0.923880 -0.974871 0.382683
v -0.923880 -1.364820 0.382683
v -0.923880 -1.754768 0.382683
v -0.923880 -2.144716 0.382683
v -0.923880 -2.534665 0.382683
v -0.923880 -2.924613 0.382683
v -0.923880 -3.314561 0.382683
v -0.923880 -3.704510 0.382683
v -0.923880 -4.094459 0.382683
v -0.980785 4.094459 0.195090
v -0.980785 3.704510 0.195090
v -0.980785 3.314562 0.195090
v -0.980785 2.924613 0.195090
v -0.980785 2.534665 0.195090
v -0.980785 2.144717 0.195090
v -0.980785 1.754768 0.195090
v -0.980785 1.364820 0.195090
v -0.980785 0.974871 0.195090
v -0.980785 0.584923 0.195090
v -0.980785 0.194974 0.195090
v -0.980785 -0.194974 0.195090
v -0.980785 -0.584923 0.195090
v -0.980785 -0.974871 0.195090
v -0.980785 -1.364820 0.195090
v -0.980785 -1.754768 0.195090
v -0.980785 -2.144716 0.195090
v -0.980785 -2.534665 0.195090
v -0.980785 -2.924613 0.195090
v -0.980785 -3.314561 0.195090
v -0.980785 -3.704510 0.195090
v -0.980785 -4.094459 0.195090
v -1.000000 4.094459 0.000000
v -1.000000 3.704510 0.000000
v -1.000000 3.314562 0.000000
v -1.000000 2.924613 0.000000
v -1.000000 2.534665 0.000000
v -1.000000 2.144717 0.000000
v -1.000000 1.754768 0.000000
v -1.000000 1.364820 0.000000
v -1.000000 0.974871 0.000000
v -1.000000 0.584923 0.000000
v -1.000000 0.194974 0.000000
v -1.000000 -0.194974 0.000000
v -1.000000 -0.584923 0.000000
v -1.000000 -0.974871 0.000000
v -1.000000 -1.364820 0.000000
v -1.000000 -1.754768 0.000000
v -1.000000 -2.144716 0.000000
v -1.000000 -2.534665 0.000000
v -1.000000 -2.924613 0.000000
v -1.000000 -3.314561 0.000000
v -1.000000 -3.704510 0.000000
v -1.000000 -4.094459 0.000000
v -0.980785 4.094459 -0.195090
v -0.980785 3.704510 -0.195090
v -0.980785 3.314562 -0.195090
v -0.980785 2.924613 -0.195090
v -0.980785 2.534665 -0.195090
v -0.980785 2.144717 -0.195090
v -0.980785 1.754768 -0.195090
v -0.980785 1.364820 -0.195090
v -0.980785 0.974871 -0.195090
v -0.980785 0.584923 -0.195090
v -0.980785 0.194974 -0.195090
v -0.980785 -0.194974 -0.195090
v -0.980785 -0.584923 -0.195090
v -0.980785 -0.974871 -0.195090
v -0.980785 -1.364820 -0.195090
v -0.980785 -1.754768 -0.195090
v -0.980785 -2.144716 -0.195090
v -0.980785 -2.534665 -0.195090
v -0.980785 -2.924613 -0.195090
v -0.980785 -3.314561 -0.195090
v -0.980785 -3.704510 -0.195090
v -0.980785 -4.094459 -0.195090
v -0.923880 4.094459 -0.382683
v -0.923880 3.704510 -0.382683
v -0.923880 3.314562 -0.382683
v -0.923880 2.924613 -0.382683
v -0.923880 2.534665 -0.382683
v -0.923880 2.144717 -0.382683
v -0.923880 1.754768 -0.382683
v -0.923880 1.364820 -0.382683
v -0.923880 0.974871 -0.382683
v -0.923880 0.584923 -0.382683
v -0.923880 0.194974 -0.382683
v -0.923880 -0.194974 -0.382683
v -0.923880 -0.584923 -0.382683
v -0.923880 -0.974871 -0.382683
v -0.923880 -1.364820 -0.382683
v -0.923880 -1.754768 -0.382683
v -0.923880 -2.144716 -0.382683
v -0.923880 -2.534665 -0.382683
v -0.923880 -2.924613 -0.382683
v -0.923880 -3.314561 -0.382683
v -0.923880 -3.704510 -0.382683
v -0.923880 -4.094459 -0.382683
v -0.831470 4.094459 -0.555570
v -0.831470 3.704510 -0.555570
v -0.831470 3.314562 -0.555570
v -0.831470 2.924613 -0.555570
v -0.831470 2.534665 -0.555570
v -0.831470 2.144717 -0.555570
v -0.831470 1.754768 -0.555570
v -0.831470 1.364820 -0.555570
v -0.831470 0.974871 -0.555570
v -0.831470 0.584923 -0.555570
v -0.831470 0.194974 -0.555570
v -0.831470 -0.194974 -0.555570
v -0.831470 -0.584923 -0.555570
v -0.831470 -0.974871 -0.555570
v -0.831470 -1.364820 -0.555570
v -0.831470 -1.754768 -0.555570
v -0.831470 -2.144716 -0.555570
v -0.831470 -2.534665 -0.555570
v -0.831470 -2.924613 -0.555570
v -0.831470 -3.314561 -0.555570
v -0.831470 -3.704510 -0.555570
v -0.831470 -4.094459 -0.555570
v -0.707107 4.094459 -0.707107
v -0.707107 3.704510 -0.707107
v -0.707107 3.314562 -0.707107
v -0.707107 2.924613 -0.707107
v -0.707107 2.534665 -0.707107
v -0.707107 2.144717 -0.707107
v -0.707107 1.754768 -0.707107
v -0.707107 1.364820 -0.707107
v -0.707107 0.974871 -0.707107
v -0.707107 0.584923 -0.707107
v -0.707107 0.194974 -0.707107
v -0.707107 -0.194974 -0.707107
v -0.707107 -0.584923 -0.707107
v -0.707107 -0.974871 -0.707107
v -0.707107 -1.364820 -0.707107
v -0.707107 -1.754768 -0.707107
v -0.707107 -2.144716 -0.707107
v -0.707107 -2.534665 -0.707107
v -0.707107 -2.924613 -0.707107
v -0.707107 -3.314561 -0.707107
v -0.707107 -3.704510 -0.707107
v -0.707107 -4.094459 -0.707107
v -0.555570 4.094459 -0.831470
v -0.555570 3.704510 -0.831470
v -0.555570 3.314562 -0.831470
v -0.555570 2.924613 -0.831470
v -0.555570 2.534665 -0.831470
v -0.555570 2.144717 -0.831470
v -0.555570 1.754768 -0.831470
v -0.555570 1.364820 -0.831470
v -0.555570 0.974871 -0.831470
v -0.555570 0.584923 -0.831470
v -0.555570 0.194974 -0.831470
v -0.555570 -0.194974 -0.831470
v -0.555570 -0.584923 -0.831470
v -0.555570 -0.974871 -0.831470
v -0.555570 -1.364820 -0.831470
v -0.555570 -1.754768 -0.831470
v -0.555570 -2.144716 -0.831470
v -0.555570 -2.534665 -0.831470
v -0.555570 -2.924613 -0.831470
v -0.555570 -3.314561 -0.831470
v -0.555570 -3.704510 -0.831470
v -0.555570 -4.094459 -0.831470
v -0.382683 4.094459 -0.923880
v -0.382683 3.704510 -0.923880
v -0.382683 3.314562 -0.923880
v -0.382683 2.924613 -0.923880
v -0.382683 2.534665 -0.923880
v -0.382683 2.144717 -0.923880
v -0.382683 1.754768 -0.923880
v -0.382683 1.364820 -0.923880
v -0.382683 0.974871 -0.923880
v -0.382683 0.584923 -0.923880
v -0.382683 0.194974 -0.923880
v -0.382683 -0.194974 -0.923880
v -0.382683 -0.584923 -0.923880
v -0.382683 -0.974871 -0.923880
v -0.382683 -1.364820 -0.923880
v -0.382683 -1.754768 -0.923880
v -0.382683 -2.144716 -0.923880
v -0.382683 -2.534665 -0.923880
v -0.382683 -2.924613 -0.923880
v -0.382683 -3.314561 -0.923880
v -0.382683 -3.704510 -0.923880
v -0.382683 -4.094459 -0.923880
s 0
f 16 7 2
f 21 6 7
f 6 19 5
f 19 4 5
f 18 3 4
f 3 15 1
f 23 14 28
f 14 27 28
f 13 26 27
f 12 25 26
f 25 10 24
f 10 22 24
f 30 21 16
f 21 34 20
f 34 19 20
f 19 32 18
f 32 17 18
f 31 15 17
f 23 42 37
f 28 41 42
f 41 26 40
f 26 39 40
f 25 38 39
f 38 22 36
f 44 35 30
f 49 34 35
f 48 33 34
f 47 32 33
f 32 45 31
f 31 43 29
f 37 56 51
f 56 41 55
f 41 54 55
f 40 53 54
f 39 52 53
f 38 50 52
f 58 49 44
f 49 62 48
f 62 47 48
f 61 46 47
f 60 45 46
f 59 43 45
f 51 70 65
f 70 55 69
f 55 68 69
f 54 67 68
f 67 52 66
f 52 64 66
f 72 63 58
f 63 76 62
f 76 61 62
f 75 60 61
f 60 73 59
f 73 57 59
f 65 84 79
f 84 69 83
f 69 82 83
f 68 81 82
f 67 80 81
f 66 78 80
f 86 77 72
f 77 90 76
f 90 75 76
f 89 74 75
f 88 73 74
f 87 71 73
f 79 98 93
f 84 97 98
f 83 96 97
f 82 95 96
f 95 80 94
f 94 78 92
f 100 91 86
f 105 90 91
f 90 103 89
f 103 88 89
f 102 87 88
f 87 99 85
f 93 112 107
f 112 97 111
f 97 110 111
f 110 95 109
f 95 108 109
f 94 106 108
f 100 119 105
f 119 104 105
f 118 103 104
f 117 102 103
f 102 115 101
f 115 99 101
f 107 126 121
f 112 125 126
f 125 110 124
f 110 123 124
f 109 122 123
f 122 106 120
f 128 119 114
f 133 118 119
f 118 131 117
f 131 116 117
f 130 115 116
f 115 127 113
f 135 126 140
f 126 139 140
f 125 138 139
f 124 137 138
f 137 122 136
f 122 134 136
f 142 133 128
f 133 146 132
f 146 131 132
f 131 144 130
f 144 129 130
f 143 127 129
f 135 154 149
f 140 153 154
f 153 138 152
f 138 151 152
f 137 150 151
f 150 134 148
f 156 147 142
f 161 146 147
f 160 145 146
f 159 144 145
f 144 157 143
f 143 155 141
f 149 168 163
f 168 153 167
f 153 166 167
f 152 165 166
f 151 164 165
f 150 162 164
f 170 161 156
f 161 174 160
f 174 159 160
f 173 158 159
f 172 157 158
f 171 155 157
f 163 182 177
f 182 167 181
f 167 180 181
f 166 179 180
f 179 164 178
f 164 176 178
f 184 175 170
f 175 188 174
f 188 173 174
f 187 172 173
f 172 185 171
f 185 169 171
f 177 196 191
f 196 181 195
f 181 194 195
f 180 193 194
f 179 192 193
f 178 190 192
f 198 189 184
f 189 202 188
f 202 187 188
f 201 186 187
f 200 185 186
f 199 183 185
f 191 210 205
f 196 209 210
f 195 208 209
f 194 207 208
f 207 192 206
f 206 190 204
f 212 203 198
f 217 202 203
f 202 215 201
f 215 200 201
f 214 199 200
f 199 211 197
f 205 224 219
f 224 209 223
f 209 222 223
f 222 207 221
f 207 220 221
f 206 218 220
f 212 231 217
f 231 216 217
f 230 215 216
f 229 214 215
f 214 227 213
f 227 211 213
f 219 238 233
f 224 237 238
f 237 222 236
f 222 235 236
f 221 234 235
f 234 218 232
f 240 231 226
f 245 230 231
f 230 243 229
f 243 228 229
f 242 227 228
f 227 239 225
f 247 238 252
f 238 251 252
f 237 250 251
f 236 249 250
f 249 234 248
f 234 246 248
f 254 245 240
f 245 258 244
f 258 243 244
f 243 256 242
f 256 241 242
f 255 239 241
f 247 266 261
f 252 265 266
f 265 250 264
f 250 263 264
f 249 262 263
f 262 246 260
f 268 259 254
f 273 258 259
f 272 257 258
f 271 256 257
f 256 269 255
f 255 267 253
f 261 280 275
f 280 265 279
f 265 278 279
f 264 277 278
f 263 276 277
f 262 274 276
f 282 273 268
f 273 286 272
f 286 271 272
f 285 270 271
f 284 269 270
f 283 267 269
f 275 294 289
f 294 279 293
f 279 292 293
f 278 291 292
f 291 276 290
f 276 288 290
f 296 287 282
f 287 300 286
f 300 285 286
f 299 284 285
f 284 297 283
f 297 281 283
f 289 308 303
f 308 293 307
f 293 306 307
f 292 305 306
f 291 304 305
f 290 302 304
f 310 301 296
f 301 314 300
f 314 299 300
f 313 298 299
f 312 297 298
f 311 295 297
f 303 322 317
f 308 321 322
f 307 320 321
f 306 319 320
f 319 304 318
f 318 302 316
f 324 315 310
f 329 314 315
f 314 327 313
f 327 312 313
f 326 311 312
f 311 323 309
f 317 336 331
f 336 321 335
f 321 334 335
f 334 319 333
f 319 332 333
f 318 330 332
f 324 343 329
f 343 328 329
f 342 327 328
f 341 326 327
f 326 339 325
f 339 323 325
f 331 350 345
f 336 349 350
f 349 334 348
f 334 347 348
f 333 346 347
f 346 330 344
f 352 343 338
f 357 342 343
f 342 355 341
f 355 340 341
f 354 339 340
f 339 351 337
f 359 350 364
f 350 363 364
f 349 362 363
f 348 361 362
f 361 346 360
f 346 358 360
f 366 357 352
f 357 370 356
f 370 355 356
f 355 368 354
f 368 353 354
f 367 351 353
f 359 378 373
f 364 377 378
f 377 362 376
f 362 375 376
f 361 374 375
f 374 358 372
f 380 371 366
f 385 370 371
f 384 369 370
f 383 368 369
f 368 381 367
f 367 379 365
f 373 392 387
f 392 377 391
f 377 390 391
f 376 389 390
f 375 388 389
f 374 386 388
f 394 385 380
f 385 398 384
f 398 383 384
f 397 382 383
f 396 381 382
f 395 379 381
f 387 406 401
f 406 391 405
f 391 404 405
f 390 403 404
f 403 388 402
f 388 400 402
f 408 399 394
f 399 412 398
f 412 397 398
f 411 396 397
f 396 409 395
f 409 393 395
f 401 420 415
f 420 405 419
f 405 418 419
f 404 417 418
f 403 416 417
f 402 414 416
f 422 413 408
f 413 426 412
f 426 411 412
f 425 410 411
f 424 409 410
f 423 407 409
f 415 434 429
f 420 433 434
f 419 432 433
f 418 431 432
f 431 416 430
f 430 414 428
f 436 427 422
f 441 426 427
f 426 439 425
f 439 424 425
f 438 423 424
f 423 435 421
f 429 448 443
f 448 433 447
f 433 446 447
f 446 431 445
f 431 444 445
f 430 442 444
f 436 7 441
f 7 440 441
f 6 439 440
f 5 438 439
f 438 3 437
f 3 435 437
f 443 14 9
f 448 13 14
f 13 446 12
f 446 11 12
f 445 10 11
f 10 442 8
f 211 323 435
f 9 471 470
f 443 470 514
f 260 148 36
f 23 515 471
f 37 537 515
f 51 559 537
f 65 581 559
f 79 603 581
f 93 625 603
f 107 647 625
f 121 669 647
f 135 691 669
f 149 713 691
f 163 735 713
f 177 757 735
f 191 779 757
f 205 801 779
f 219 823 801
f 233 845 823
f 247 867 845
f 261 889 867
f 275 911 889
f 289 933 911
f 303 955 933
f 317 977 955
f 331 999 977
f 345 1021 999
f 359 1043 1021
f 373 1065 1043
f 387 1087 1065
f 401 1109 1087
f 415 1131 1109
f 429 514 1131
f 1152 436 422
f 1152 494 493
f 1151 495 494
f 1150 496 495
f 1149 497 496
f 1148 498 497
f 1147 499 498
f 1146 500 499
f 1145 501 500
f 1144 502 501
f 1143 503 502
f 1142 504 503
f 1141 505 504
f 1140 506 505
f 1139 507 506
f 1138 508 507
f 1137 509 508
f 1136 510 509
f 1135 511 510
f 1134 512 511
f 1133 513 512
f 1132 514 513
f 1130 422 408
f 1129 1152 1130
f 1128 1151 1129
f 1127 1150 1128
f 1126 1149 1127
f 1125 1148 1126
f 1124 1147 1125
f 1123 1146 1124
f 1122 1145 1123
f 1121 1144 1122
f 1120 1143 1121
f 1119 1142 1120
f 1118 1141 1119
f 1117 1140 1118
f 1116 1139 1117
f 1115 1138 1116
f 1114 1137 1115
f 1113 1136 1114
f 1112 1135 1113
f 1111 1134 1112
f 1110 1133 1111
f 1109 1132 1110
f 1108 408 394
f 1107 1130 1108
f 1106 1129 1107
f 1105 1128 1106
f 1104 1127 1105
f 1103 1126 1104
f 1102 1125 1103
f 1101 1124 1102
f 1100 1123 1101
f 1099 1122 1100
f 1098 1121 1099
f 1097 1120 1098
f 1096 1119 1097
f 1095 1118 1096
f 1094 1117 1095
f 1093 1116 1094
f 1092 1115 1093
f 1091 1114 1092
f 1090 1113 1091
f 1089 1112 1090
f 1088 1111 1089
f 1087 1110 1088
f 1086 394 380
f 1085 1108 1086
f 1084 1107 1085
f 1083 1106 1084
f 1082 1105 1083
f 1081 1104 1082
f 1080 1103 1081
f 1079 1102 1080
f 1078 1101 1079
f 1077 1100 1078
f 1076 1099 1077
f 1075 1098 1076
f 1074 1097 1075
f 1073 1096 1074
f 1072 1095 1073
f 1071 1094 1072
f 1070 1093 1071
f 1069 1092 1070
f 1068 1091 1069
f 1067 1090 1068
f 1066 1089 1067
f 1065 1088 1066
f 1064 380 366
f 1063 1086 1064
f 1062 1085 1063
f 1061 1084 1062
f 1060 1083 1061
f 1059 1082 1060
f 1058 1081 1059
f 1057 1080 1058
f 1056 1079 1057
f 1055 1078 1056
f 1054 1077 1055
f 1053 1076 1054
f 1052 1075 1053
f 1051 1074 1052
f 1050 1073 1051
f 1049 1072 1050
f 1048 1071 1049
f 1047 1070 1048
f 1046 1069 1047
f 1045 1068 1046
f 1044 1067 1045
f 1043 1066 1044
f 1042 366 352
f 1041 1064 1042
f 1040 1063 1041
f 1039 1062 1040
f 1038 1061 1039
f 1037 1060 1038
f 1036 1059 1037
f 1035 1058 1036
f 1034 1057 1035
f 1033 1056 1034
f 1032 1055 1033
f 1031 1054 1032
f 1030 1053 1031
f 1029 1052 1030
f 1028 1051 1029
f 1027 1050 1028
f 1026 1049 1027
f 1025 1048 1026
f 1024 1047 1025
f 1023 1046 1024
f 1022 1045 1023
f 1021 1044 1022
f 1020 352 338
f 1019 1042 1020
f 1018 1041 1019
f 1017 1040 1018
f 1016 1039 1017
f 1015 1038 1016
f 1014 1037 1015
f 1013 1036 1014
f 1012 1035 1013
f 1011 1034 1012
f 1010 1033 1011
f 1009 1032 1010
f 1008 1031 1009
f 1007 1030 1008
f 1006 1029 1007
f 1005 1028 1006
f 1004 1027 1005
f 1003 1026 1004
f 1002 1025 1003
f 1001 1024 1002
f 1000 1023 1001
f 999 1022 1000
f 998 338 324
f 997 1020 998
f 996 1019 997
f 995 1018 996
f 994 1017 995
f 993 1016 994
f 992 1015 993
f 991 1014 992
f 990 1013 991
f 989 1012 990
f 988 1011 989
f 987 1010 988
f 986 1009 987
f 985 1008 986
f 984 1007 985
f 983 1006 984
f 982 1005 983
f 981 1004 982
f 980 1003 981
f 979 1002 980
f 978 1001 979
f 977 1000 978
f 976 324 310
f 975 998 976
f 974 997 975
f 973 996 974
f 972 995 973
f 971 994 972
f 970 993 971
f 969 992 970
f 968 991 969
f 967 990 968
f 966 989 967
f 965 988 966
f 964 987 965
f 963 986 964
f 962 985 963
f 961 984 962
f 960 983 961
f 959 982 960
f 958 981 959
f 957 980 958
f 956 979 957
f 955 978 956
f 954 310 296
f 953 976 954
f 952 975 953
f 951 974 952
f 950 973 951
f 949 972 950
f 948 971 949
f 947 970 948
f 946 969 947
f 945 968 946
f 944 967 945
f 943 966 944
f 942 965 943
f 941 964 942
f 940 963 941
f 939 962 940
f 938 961 939
f 937 960 938
f 936 959 937
f 935 958 936
f 934 957 935
f 933 956 934
f 932 296 282
f 931 954 932
f 930 953 931
f 929 952 930
f 928 951 929
f 927 950 928
f 926 949 927
f 925 948 926
f 924 947 925
f 923 946 924
f 922 945 923
f 921 944 922
f 920 943 921
f 919 942 920
f 918 941 919
f 917 940 918
f 916 939 917
f 915 938 916
f 914 937 915
f 913 936 914
f 912 935 913
f 911 934 912
f 910 282 268
f 909 932 910
f 908 931 909
f 907 930 908
f 906 929 907
f 905 928 906
f 904 927 905
f 903 926 904
f 902 925 903
f 901 924 902
f 900 923 901
f 899 922 900
f 898 921 899
f 897 920 898
f 896 919 897
f 895 918 896
f 894 917 895
f 893 916 894
f 892 915 893
f 891 914 892
f 890 913 891
f 889 912 890
f 888 268 254
f 887 910 888
f 886 909 887
f 885 908 886
f 884 907 885
f 883 906 884
f 882 905 883
f 881 904 882
f 880 903 881
f 879 902 880
f 878 901 879
f 877 900 878
f 876 899 877
f 875 898 876
f 874 897 875
f 873 896 874
f 872 895 873
f 871 894 872
f 870 893 871
f 869 892 870
f 868 891 869
f 867 890 868
f 866 254 240
f 865 888 866
f 864 887 865
f 863 886 864
f 862 885 863
f 861 884 862
f 860 883 861
f 859 882 860
f 858 881 859
f 857 880 858
f 856 879 857
f 855 878 856
f 854 877 855
f 853 876 854
f 852 875 853
f 851 874 852
f 850 873 851
f 849 872 850
f 848 871 849
f 847 870 848
f 846 869 847
f 845 868 846
f 844 240 226
f 843 866 844
f 842 865 843
f 841 864 842
f 840 863 841
f 839 862 840
f 838 861 839
f 837 860 838
f 836 859 837
f 835 858 836
f 834 857 835
f 833 856 834
f 832 855 833
f 831 854 832
f 830 853 831
f 829 852 830
f 828 851 829
f 827 850 828
f 826 849 827
f 825 848 826
f 824 847 825
f 823 846 824
f 822 226 212
f 821 844 822
f 820 843 821
f 819 842 820
f 818 841 819
f 817 840 818
f 816 839 817
f 815 838 816
f 814 837 815
f 813 836 814
f 812 835 813
f 811 834 812
f 810 833 811
f 809 832 810
f 808 831 809
f 807 830 808
f 806 829 807
f 805 828 806
f 804 827 805
f 803 826 804
f 802 825 803
f 801 824 802
f 800 212 198
f 799 822 800
f 798 821 799
f 797 820 798
f 796 819 797
f 795 818 796
f 794 817 795
f 793 816 794
f 792 815 793
f 791 814 792
f 790 813 791
f 789 812 790
f 788 811 789
f 787 810 788
f 786 809 787
f 785 808 786
f 784 807 785
f 783 806 784
f 782 805 783
f 781 804 782
f 780 803 781
f 779 802 780
f 778 198 184
f 777 800 778
f 776 799 777
f 775 798 776
f 774 797 775
f 773 796 774
f 772 795 773
f 771 794 772
f 770 793 771
f 769 792 770
f 768 791 769
f 767 790 768
f 766 789 767
f 765 788 766
f 764 787 765
f 763 786 764
f 762 785 763
f 761 784 762
f 760 783 761
f 759 782 760
f 758 781 759
f 757 780 758
f 756 184 170
f 755 778 756
f 754 777 755
f 753 776 754
f 752 775 753
f 751 774 752
f 750 773 751
f 749 772 750
f 748 771 749
f 747 770 748
f 746 769 747
f 745 768 746
f 744 767 745
f 743 766 744
f 742 765 743
f 741 764 742
f 740 763 741
f 739 762 740
f 738 761 739
f 737 760 738
f 736 759 737
f 735 758 736
f 734 170 156
f 733 756 734
f 732 755 733
f 731 754 732
f 730 753 731
f 729 752 730
f 728 751 729
f 727 750 728
f 726 749 727
f 725 748 726
f 724 747 725
f 723 746 724
f 722 745 723
f 721 744 722
f 720 743 721
f 719 742 720
f 718 741 719
f 717 740 718
f 716 739 717
f 715 738 716
f 714 737 715
f 713 736 714
f 712 156 142
f 711 734 712
f 710 733 711
f 709 732 710
f 708 731 709
f 707 730 708
f 706 729 707
f 705 728 706
f 704 727 705
f 703 726 704
f 702 725 703
f 701 724 702
f 700 723 701
f 699 722 700
f 698 721 699
f 697 720 698
f 696 719 697
f 695 718 696
f 694 717 695
f 693 716 694
f 692 715 693
f 691 714 692
f 690 142 128
f 689 712 690
f 688 711 689
f 687 710 688
f 686 709 687
f 685 708 686
f 684 707 685
f 683 706 684
f 682 705 683
f 681 704 682
f 680 703 681
f 679 702 680
f 678 701 679
f 677 700 678
f 676 699 677
f 675 698 676
f 674 697 675
f 673 696 674
f 672 695 673
f 671 694 672
f 670 693 671
f 669 692 670
f 668 128 114
f 667 690 668
f 666 689 667
f 665 688 666
f 664 687 665
f 663 686 664
f 662 685 663
f 661 684 662
f 660 683 661
f 659 682 660
f 658 681 659
f 657 680 658
f 656 679 657
f 655 678 656
f 654 677 655
f 653 676 654
f 652 675 653
f 651 674 652
f 650 673 651
f 649 672 650
f 648 671 649
f 647 670 648
f 646 114 100
f 645 668 646
f 644 667 645
f 643 666 644
f 642 665 643
f 641 664 642
f 640 663 641
f 639 662 640
f 638 661 639
f 637 660 638
f 636 659 637
f 635 658 636
f 634 657 635
f 633 656 634
f 632 655 633
f 631 654 632
f 630 653 631
f 629 652 630
f 628 651 629
f 627 650 628
f 626 649 627
f 625 648 626
f 624 100 86
f 623 646 624
f 622 645 623
f 621 644 622
f 620 643 621
f 619 642 620
f 618 641 619
f 617 640 618
f 616 639 617
f 615 638 616
f 614 637 615
f 613 636 614
f 612 635 613
f 611 634 612
f 610 633 611
f 609 632 610
f 608 631 609
f 607 630 608
f 606 629 607
f 605 628 606
f 604 627 605
f 603 626 604
f 602 86 72
f 601 624 602
f 600 623 601
f 599 622 600
f 598 621 599
f 597 620 598
f 596 619 597
f 595 618 596
f 594 617 595
f 593 616 594
f 592 615 593
f 591 614 592
f 590 613 591
f 589 612 590
f 588 611 589
f 587 610 588
f 586 609 587
f 585 608 586
f 584 607 585
f 583 606 584
f 582 605 583
f 581 604 582
f 580 72 58
f 579 602 580
f 578 601 579
f 577 600 578
f 576 599 577
f 575 598 576
f 574 597 575
f 573 596 574
f 572 595 573
f 571 594 572
f 570 593 571
f 569 592 570
f 568 591 569
f 567 590 568
f 566 589 567
f 565 588 566
f 564 587 565
f 563 586 564
f 562 585 563
f 561 584 562
f 560 583 561
f 559 582 560
f 558 58 44
f 557 580 558
f 556 579 557
f 555 578 556
f 554 577 555
f 553 576 554
f 552 575 553
f 551 574 552
f 550 573 551
f 549 572 550
f 548 571 549
f 547 570 548
f 546 569 547
f 545 568 546
f 544 567 545
f 543 566 544
f 542 565 543
f 541 564 542
f 540 563 541
f 539 562 540
f 538 561 539
f 537 560 538
f 536 44 30
f 535 558 536
f 534 557 535
f 533 556 534
f 532 555 533
f 531 554 532
f 530 553 531
f 529 552 530
f 528 551 529
f 527 550 528
f 526 549 527
f 525 548 526
f 524 547 525
f 523 546 524
f 522 545 523
f 521 544 522
f 520 543 521
f 519 542 520
f 518 541 519
f 517 540 518
f 516 539 517
f 515 538 516
f 492 30 16
f 491 536 492
f 490 535 491
f 489 534 490
f 488 533 489
f 487 532 488
f 486 531 487
f 485 530 486
f 484 529 485
f 483 528 484
f 482 527 483
f 481 526 482
f 480 525 481
f 479 524 480
f 478 523 479
f 477 522 478
f 476 521 477
f 475 520 476
f 474 519 475
f 473 518 474
f 472 517 473
f 471 516 472
f 493 2 436
f 494 449 493
f 495 450 494
f 496 451 495
f 497 452 496
f 498 453 497
f 499 454 498
f 500 455 499
f 501 456 500
f 502 457 501
f 503 458 502
f 504 459 503
f 505 460 504
f 506 461 505
f 507 462 506
f 508 463 507
f 509 464 508
f 510 465 509
f 511 466 510
f 512 467 511
f 513 468 512
f 514 469 513
f 449 16 2
f 450 492 449
f 451 491 450
f 452 490 451
f 453 489 452
f 454 488 453
f 455 487 454
f 456 486 455
f 457 485 456
f 458 484 457
f 459 483 458
f 460 482 459
f 461 481 460
f 462 480 461
f 463 479 462
f 464 478 463
f 465 477 464
f 466 476 465
f 467 475 466
f 468 474 467
f 469 473 468
f 470 472 469
f 16 21 7
f 21 20 6
f 6 20 19
f 19 18 4
f 18 17 3
f 3 17 15
f 23 9 14
f 14 13 27
f 13 12 26
f 12 11 25
f 25 11 10
f 10 8 22
f 30 35 21
f 21 35 34
f 34 33 19
f 19 33 32
f 32 31 17
f 31 29 15
f 23 28 42
f 28 27 41
f 41 27 26
f 26 25 39
f 25 24 38
f 38 24 22
f 44 49 35
f 49 48 34
f 48 47 33
f 47 46 32
f 32 46 45
f 31 45 43
f 37 42 56
f 56 42 41
f 41 40 54
f 40 39 53
f 39 38 52
f 38 36 50
f 58 63 49
f 49 63 62
f 62 61 47
f 61 60 46
f 60 59 45
f 59 57 43
f 51 56 70
f 70 56 55
f 55 54 68
f 54 53 67
f 67 53 52
f 52 50 64
f 72 77 63
f 63 77 76
f 76 75 61
f 75 74 60
f 60 74 73
f 73 71 57
f 65 70 84
f 84 70 69
f 69 68 82
f 68 67 81
f 67 66 80
f 66 64 78
f 86 91 77
f 77 91 90
f 90 89 75
f 89 88 74
f 88 87 73
f 87 85 71
f 79 84 98
f 84 83 97
f 83 82 96
f 82 81 95
f 95 81 80
f 94 80 78
f 100 105 91
f 105 104 90
f 90 104 103
f 103 102 88
f 102 101 87
f 87 101 99
f 93 98 112
f 112 98 97
f 97 96 110
f 110 96 95
f 95 94 108
f 94 92 106
f 100 114 119
f 119 118 104
f 118 117 103
f 117 116 102
f 102 116 115
f 115 113 99
f 107 112 126
f 112 111 125
f 125 111 110
f 110 109 123
f 109 108 122
f 122 108 106
f 128 133 119
f 133 132 118
f 118 132 131
f 131 130 116
f 130 129 115
f 115 129 127
f 135 121 126
f 126 125 139
f 125 124 138
f 124 123 137
f 137 123 122
f 122 120 134
f 142 147 133
f 133 147 146
f 146 145 131
f 131 145 144
f 144 143 129
f 143 141 127
f 135 140 154
f 140 139 153
f 153 139 138
f 138 137 151
f 137 136 150
f 150 136 134
f 156 161 147
f 161 160 146
f 160 159 145
f 159 158 144
f 144 158 157
f 143 157 155
f 149 154 168
f 168 154 153
f 153 152 166
f 152 151 165
f 151 150 164
f 150 148 162
f 170 175 161
f 161 175 174
f 174 173 159
f 173 172 158
f 172 171 157
f 171 169 155
f 163 168 182
f 182 168 167
f 167 166 180
f 166 165 179
f 179 165 164
f 164 162 176
f 184 189 175
f 175 189 188
f 188 187 173
f 187 186 172
f 172 186 185
f 185 183 169
f 177 182 196
f 196 182 181
f 181 180 194
f 180 179 193
f 179 178 192
f 178 176 190
f 198 203 189
f 189 203 202
f 202 201 187
f 201 200 186
f 200 199 185
f 199 197 183
f 191 196 210
f 196 195 209
f 195 194 208
f 194 193 207
f 207 193 192
f 206 192 190
f 212 217 203
f 217 216 202
f 202 216 215
f 215 214 200
f 214 213 199
f 199 213 211
f 205 210 224
f 224 210 209
f 209 208 222
f 222 208 207
f 207 206 220
f 206 204 218
f 212 226 231
f 231 230 216
f 230 229 215
f 229 228 214
f 214 228 227
f 227 225 211
f 219 224 238
f 224 223 237
f 237 223 222
f 222 221 235
f 221 220 234
f 234 220 218
f 240 245 231
f 245 244 230
f 230 244 243
f 243 242 228
f 242 241 227
f 227 241 239
f 247 233 238
f 238 237 251
f 237 236 250
f 236 235 249
f 249 235 234
f 234 232 246
f 254 259 245
f 245 259 258
f 258 257 243
f 243 257 256
f 256 255 241
f 255 253 239
f 247 252 266
f 252 251 265
f 265 251 250
f 250 249 263
f 249 248 262
f 262 248 246
f 268 273 259
f 273 272 258
f 272 271 257
f 271 270 256
f 256 270 269
f 255 269 267
f 261 266 280
f 280 266 265
f 265 264 278
f 264 263 277
f 263 262 276
f 262 260 274
f 282 287 273
f 273 287 286
f 286 285 271
f 285 284 270
f 284 283 269
f 283 281 267
f 275 280 294
f 294 280 279
f 279 278 292
f 278 277 291
f 291 277 276
f 276 274 288
f 296 301 287
f 287 301 300
f 300 299 285
f 299 298 284
f 284 298 297
f 297 295 281
f 289 294 308
f 308 294 293
f 293 292 306
f 292 291 305
f 291 290 304
f 290 288 302
f 310 315 301
f 301 315 314
f 314 313 299
f 313 312 298
f 312 311 297
f 311 309 295
f 303 308 322
f 308 307 321
f 307 306 320
f 306 305 319
f 319 305 304
f 318 304 302
f 324 329 315
f 329 328 314
f 314 328 327
f 327 326 312
f 326 325 311
f 311 325 323
f 317 322 336
f 336 322 321
f 321 320 334
f 334 320 319
f 319 318 332
f 318 316 330
f 324 338 343
f 343 342 328
f 342 341 327
f 341 340 326
f 326 340 339
f 339 337 323
f 331 336 350
f 336 335 349
f 349 335 334
f 334 333 347
f 333 332 346
f 346 332 330
f 352 357 343
f 357 356 342
f 342 356 355
f 355 354 340
f 354 353 339
f 339 353 351
f 359 345 350
f 350 349 363
f 349 348 362
f 348 347 361
f 361 347 346
f 346 344 358
f 366 371 357
f 357 371 370
f 370 369 355
f 355 369 368
f 368 367 353
f 367 365 351
f 359 364 378
f 364 363 377
f 377 363 362
f 362 361 375
f 361 360 374
f 374 360 358
f 380 385 371
f 385 384 370
f 384 383 369
f 383 382 368
f 368 382 381
f 367 381 379
f 373 378 392
f 392 378 377
f 377 376 390
f 376 375 389
f 375 374 388
f 374 372 386
f 394 399 385
f 385 399 398
f 398 397 383
f 397 396 382
f 396 395 381
f 395 393 379
f 387 392 406
f 406 392 391
f 391 390 404
f 390 389 403
f 403 389 388
f 388 386 400
f 408 413 399
f 399 413 412
f 412 411 397
f 411 410 396
f 396 410 409
f 409 407 393
f 401 406 420
f 420 406 405
f 405 404 418
f 404 403 417
f 403 402 416
f 402 400 414
f 422 427 413
f 413 427 426
f 426 425 411
f 425 424 410
f 424 423 409
f 423 421 407
f 415 420 434
f 420 419 433
f 419 418 432
f 418 417 431
f 431 417 416
f 430 416 414
f 436 441 427
f 441 440 426
f 426 440 439
f 439 438 424
f 438 437 423
f 423 437 435
f 429 434 448
f 448 434 433
f 433 432 446
f 446 432 431
f 431 430 444
f 430 428 442
f 436 2 7
f 7 6 440
f 6 5 439
f 5 4 438
f 438 4 3
f 3 1 435
f 443 448 14
f 448 447 13
f 13 447 446
f 446 445 11
f 445 444 10
f 10 444 442
f 435 1 43
f 1 15 43
f 15 29 43
f 43 57 71
f 71 85 43
f 85 99 43
f 99 113 155
f 113 127 155
f 127 141 155
f 155 169 183
f 183 197 155
f 197 211 155
f 211 225 267
f 225 239 267
f 239 253 267
f 267 281 295
f 295 309 267
f 309 323 267
f 323 337 379
f 337 351 379
f 351 365 379
f 379 393 407
f 407 421 379
f 421 435 379
f 435 43 99
f 99 155 211
f 211 267 323
f 323 379 435
f 435 99 211
f 9 23 471
f 443 9 470
f 36 22 8
f 8 442 428
f 428 414 400
f 400 386 428
f 386 372 428
f 372 358 344
f 344 330 316
f 316 302 288
f 288 274 316
f 274 260 316
f 260 246 232
f 232 218 204
f 204 190 176
f 176 162 204
f 162 148 204
f 148 134 120
f 120 106 92
f 92 78 64
f 64 50 92
f 50 36 92
f 36 8 372
f 8 428 372
f 372 344 260
f 344 316 260
f 260 232 148
f 232 204 148
f 148 120 36
f 120 92 36
f 36 372 260
f 23 37 515
f 37 51 537
f 51 65 559
f 65 79 581
f 79 93 603
f 93 107 625
f 107 121 647
f 121 135 669
f 135 149 691
f 149 163 713
f 163 177 735
f 177 191 757
f 191 205 779
f 205 219 801
f 219 233 823
f 233 247 845
f 247 261 867
f 261 275 889
f 275 289 911
f 289 303 933
f 303 317 955
f 317 331 977
f 331 345 999
f 345 359 1021
f 359 373 1043
f 373 387 1065
f 387 401 1087
f 401 415 1109
f 415 429 1131
f 429 443 514
f 1152 493 436
f 1152 1151 494
f 1151 1150 495
f 1150 1149 496
f 1149 1148 497
f 1148 1147 498
f 1147 1146 499
f 1146 1145 500
f 1145 1144 501
f 1144 1143 502
f 1143 1142 503
f 1142 1141 504
f 1141 1140 505
f 1140 1139 506
f 1139 1138 507
f 1138 1137 508
f 1137 1136 509
f 1136 1135 510
f 1135 1134 511
f 1134 1133 512
f 1133 1132 513
f 1132 1131 514
f 1130 1152 422
f 1129 1151 1152
f 1128 1150 1151
f 1127 1149 1150
f 1126 1148 1149
f 1125 1147 1148
f 1124 1146 1147
f 1123 1145 1146
f 1122 1144 1145
f 1121 1143 1144
f 1120 1142 1143
f 1119 1141 1142
f 1118 1140 1141
f 1117 1139 1140
f 1116 1138 1139
f 1115 1137 1138
f 1114 1136 1137
f 1113 1135 1136
f 1112 1134 1135
f 1111 1133 1134
f 1110 1132 1133
f 1109 1131 1132
f 1108 1130 408
f 1107 1129 1130
f 1106 1128 1129
f 1105 1127 1128
f 1104 1126 1127
f 1103 1125 1126
f 1102 1124 1125
f 1101 1123 1124
f 1100 1122 1123
f 1099 1121 1122
f 1098 1120 1121
f 1097 1119 1120
f 1096 1118 1119
f 1095 1117 1118
f 1094 1116 1117
f 1093 1115 1116
f 1092 1114 1115
f 1091 1113 1114
f 1090 1112 1113
f 1089 1111 1112
f 1088 1110 1111
f 1087 1109 1110
f 1086 1108 394
f 1085 1107 1108
f 1084 1106 1107
f 1083 1105 1106
f 1082 1104 1105
f 1081 1103 1104
f 1080 1102 1103
f 1079 1101 1102
f 1078 1100 1101
f 1077 1099 1100
f 1076 1098 1099
f 1075 1097 1098
f 1074 1096 1097
f 1073 1095 1096
f 1072 1094 1095
f 1071 1093 1094
f 1070 1092 1093
f 1069 1091 1092
f 1068 1090 1091
f 1067 1089 1090
f 1066 1088 1089
f 1065 1087 1088
f 1064 1086 380
f 1063 1085 1086
f 1062 1084 1085
f 1061 1083 1084
f 1060 1082 1083
f 1059 1081 1082
f 1058 1080 1081
f 1057 1079 1080
f 1056 1078 1079
f 1055 1077 1078
f 1054 1076 1077
f 1053 1075 1076
f 1052 1074 1075
f 1051 1073 1074
f 1050 1072 1073
f 1049 1071 1072
f 1048 1070 1071
f 1047 1069 1070
f 1046 1068 1069
f 1045 1067 1068
f 1044 1066 1067
f 1043 1065 1066
f 1042 1064 366
f 1041 1063 1064
f 1040 1062 1063
f 1039 1061 1062
f 1038 1060 1061
f 1037 1059 1060
f 1036 1058 1059
f 1035 1057 1058
f 1034 1056 1057
f 1033 1055 1056
f 1032 1054 1055
f 1031 1053 1054
f 1030 1052 1053
f 1029 1051 1052
f 1028 1050 1051
f 1027 1049 1050
f 1026 1048 1049
f 1025 1047 1048
f 1024 1046 1047
f 1023 1045 1046
f 1022 1044 1045
f 1021 1043 1044
f 1020 1042 352
f 1019 1041 1042
f 1018 1040 1041
f 1017 1039 1040
f 1016 1038 1039
f 1015 1037 1038
f 1014 1036 1037
f 1013 1035 1036
f 1012 1034 1035
f 1011 1033 1034
f 1010 1032 1033
f 1009 1031 1032
f 1008 1030 1031
f 1007 1029 1030
f 1006 1028 1029
f 1005 1027 1028
f 1004 1026 1027
f 1003 1025 1026
f 1002 1024 1025
f 1001 1023 1024
f 1000 1022 1023
f 999 1021 1022
f 998 1020 338
f 997 1019 1020
f 996 1018 1019
f 995 1017 1018
f 994 1016 1017
f 993 1015 1016
f 992 1014 1015
f 991 1013 1014
f 990 1012 1013
f 989 1011 1012
f 988 1010 1011
f 987 1009 1010
f 986 1008 1009
f 985 1007 1008
f 984 1006 1007
f 983 1005 1006
f 982 1004 1005
f 981 1003 1004
f 980 1002 1003
f 979 1001 1002
f 978 1000 1001
f 977 999 1000
f 976 998 324
f 975 997 998
f 974 996 997
f 973 995 996
f 972 994 995
f 971 993 994
f 970 992 993
f 969 991 992
f 968 990 991
f 967 989 990
f 966 988 989
f 965 987 988
f 964 986 987
f 963 985 986
f 962 984 985
f 961 983 984
f 960 982 983
f 959 981 982
f 958 980 981
f 957 979 980
f 956 978 979
f 955 977 978
f 954 976 310
f 953 975 976
f 952 974 975
f 951 973 974
f 950 972 973
f 949 971 972
f 948 970 971
f 947 969 970
f 946 968 969
f 945 967 968
f 944 966 967
f 943 965 966
f 942 964 965
f 941 963 964
f 940 962 963
f 939 961 962
f 938 960 961
f 937 959 960
f 936 958 959
f 935 957 958
f 934 956 957
f 933 955 956
f 932 954 296
f 931 953 954
f 930 952 953
f 929 951 952
f 928 950 951
f 927 949 950
f 926 948 949
f 925 947 948
f 924 946 947
f 923 945 946
f 922 944 945
f 921 943 944
f 920 942 943
f 919 941 942
f 918 940 941
f 917 939 940
f 916 938 939
f 915 937 938
f 914 936 937
f 913 935 936
f 912 934 935
f 911 933 934
f 910 932 282
f 909 931 932
f 908 930 931
f 907 929 930
f 906 928 929
f 905 927 928
f 904 926 927
f 903 925 926
f 902 924 925
f 901 923 924
f 900 922 923
f 899 921 922
f 898 920 921
f 897 919 920
f 896 918 919
f 895 917 918
f 894 916 917
f 893 915 916
f 892 914 915
f 891 913 914
f 890 912 913
f 889 911 912
f 888 910 268
f 887 909 910
f 886 908 909
f 885 907 908
f 884 906 907
f 883 905 906
f 882 904 905
f 881 903 904
f 880 902 903
f 879 901 902
f 878 900 901
f 877 899 900
f 876 898 899
f 875 897 898
f 874 896 897
f 873 895 896
f 872 894 895
f 871 893 894
f 870 892 893
f 869 891 892
f 868 890 891
f 867 889 890
f 866 888 254
f 865 887 888
f 864 886 887
f 863 885 886
f 862 884 885
f 861 883 884
f 860 882 883
f 859 881 882
f 858 880 881
f 857 879 880
f 856 878 879
f 855 877 878
f 854 876 877
f 853 875 876
f 852 874 875
f 851 873 874
f 850 872 873
f 849 871 872
f 848 870 871
f 847 869 870
f 846 868 869
f 845 867 868
f 844 866 240
f 843 865 866
f 842 864 865
f 841 863 864
f 840 862 863
f 839 861 862
f 838 860 861
f 837 859 860
f 836 858 859
f 835 857 858
f 834 856 857
f 833 855 856
f 832 854 855
f 831 853 854
f 830 852 853
f 829 851 852
f 828 850 851
f 827 849 850
f 826 848 849
f 825 847 848
f 824 846 847
f 823 845 846
f 822 844 226
f 821 843 844
f 820 842 843
f 819 841 842
f 818 840 841
f 817 839 840
f 816 838 839
f 815 837 838
f 814 836 837
f 813 835 836
f 812 834 835
f 811 833 834
f 810 832 833
f 809 831 832
f 808 830 831
f 807 829 830
f 806 828 829
f 805 827 828
f 804 826 827
f 803 825 826
f 802 824 825
f 801 823 824
f 800 822 212
f 799 821 822
f 798 820 821
f 797 819 820
f 796 818 819
f 795 817 818
f 794 816 817
f 793 815 816
f 792 814 815
f 791 813 814
f 790 812 813
f 789 811 812
f 788 810 811
f 787 809 810
f 786 808 809
f 785 807 808
f 784 806 807
f 783 805 806
f 782 804 805
f 781 803 804
f 780 802 803
f 779 801 802
f 778 800 198
f 777 799 800
f 776 798 799
f 775 797 798
f 774 796 797
f 773 795 796
f 772 794 795
f 771 793 794
f 770 792 793
f 769 791 792
f 768 790 791
f 767 789 790
f 766 788 789
f 765 787 788
f 764 786 787
f 763 785 786
f 762 784 785
f 761 783 784
f 760 782 783
f 759 781 782
f 758 780 781
f 757 779 780
f 756 778 184
f 755 777 778
f 754 776 777
f 753 775 776
f 752 774 775
f 751 773 774
f 750 772 773
f 749 771 772
f 748 770 771
f 747 769 770
f 746 768 769
f 745 767 768
f 744 766 767
f 743 765 766
f 742 764 765
f 741 763 764
f 740 762 763
f 739 761 762
f 738 760 761
f 737 759 760
f 736 758 759
f 735 757 758
f 734 756 170
f 733 755 756
f 732 754 755
f 731 753 754
f 730 752 753
f 729 751 752
f 728 750 751
f 727 749 750
f 726 748 749
f 725 747 748
f 724 746 747
f 723 745 746
f 722 744 745
f 721 743 744
f 720 742 743
f 719 741 742
f 718 740 741
f 717 739 740
f 716 738 739
f 715 737 738
f 714 736 737
f 713 735 736
f 712 734 156
f 711 733 734
f 710 732 733
f 709 731 732
f 708 730 731
f 707 729 730
f 706 728 729
f 705 727 728
f 704 726 727
f 703 725 726
f 702 724 725
f 701 723 724
f 700 722 723
f 699 721 722
f 698 720 721
f 697 719 720
f 696 718 719
f 695 717 718
f 694 716 717
f 693 715 716
f 692 714 715
f 691 713 714
f 690 712 142
f 689 711 712
f 688 710 711
f 687 709 710
f 686 708 709
f 685 707 708
f 684 706 707
f 683 705 706
f 682 704 705
f 681 703 704
f 680 702 703
f 679 701 702
f 678 700 701
f 677 699 700
f 676 698 699
f 675 697 698
f 674 696 697
f 673 695 696
f 672 694 695
f 671 693 694
f 670 692 693
f 669 691 692
f 668 690 128
f 667 689 690
f 666 688 689
f 665 687 688
f 664 686 687
f 663 685 686
f 662 684 685
f 661 683 684
f 660 682 683
f 659 681 682
f 658 680 681
f 657 679 680
f 656 678 679
f 655 677 678
f 654 676 677
f 653 675 676
f 652 674 675
f 651 673 674
f 650 672 673
f 649 671 672
f 648 670 671
f 647 669 670
f 646 668 114
f 645 667 668
f 644 666 667
f 643 665 666
f 642 664 665
f 641 663 664
f 640 662 663
f 639 661 662
f 638 660 661
f 637 659 660
f 636 658 659
f 635 657 658
f 634 656 657
f 633 655 656
f 632 654 655
f 631 653 654
f 630 652 653
f 629 651 652
f 628 650 651
f 627 649 650
f 626 648 649
f 625 647 648
f 624 646 100
f 623 645 646
f 622 644 645
f 621 643 644
f 620 642 643
f 619 641 642
f 618 640 641
f 617 639 640
f 616 638 639
f 615 637 638
f 614 636 637
f 613 635 636
f 612 634 635
f 611 633 634
f 610 632 633
f 609 631 632
f 608 630 631
f 607 629 630
f 606 628 629
f 605 627 628
f 604 626 627
f 603 625 626
f 602 624 86
f 601 623 624
f 600 622 623
f 599 621 622
f 598 620 621
f 597 619 620
f 596 618 619
f 595 617 618
f 594 616 617
f 593 615 616
f 592 614 615
f 591 613 614
f 590 612 613
f 589 611 612
f 588 610 611
f 587 609 610
f 586 608 609
f 585 607 608
f 584 606 607
f 583 605 606
f 582 604 605
f 581 603 604
f 580 602 72
f 579 601 602
f 578 600 601
f 577 599 600
f 576 598 599
f 575 597 598
f 574 596 597
f 573 595 596
f 572 594 595
f 571 593 594
f 570 592 593
f 569 591 592
f 568 590 591
f 567 589 590
f 566 588 589
f 565 587 588
f 564 586 587
f 563 585 586
f 562 584 585
f 561 583 584
f 560 582 583
f 559 581 582
f 558 580 58
f 557 579 580
f 556 578 579
f 555 577 578
f 554 576 577
f 553 575 576
f 552 574 575
f 551 573 574
f 550 572 573
f 549 571 572
f 548 570 571
f 547 569 570
f 546 568 569
f 545 567 568
f 544 566 567
f 543 565 566
f 542 564 565
f 541 563 564
f 540 562 563
f 539 561 562
f 538 560 561
f 537 559 560
f 536 558 44
f 535 557 558
f 534 556 557
f 533 555 556
f 532 554 555
f 531 553 554
f 530 552 553
f 529 551 552
f 528 550 551
f 527 549 550
f 526 548 549
f 525 547 548
f 524 546 547
f 523 545 546
f 522 544 545
f 521 543 544
f 520 542 543
f 519 541 542
f 518 540 541
f 517 539 540
f 516 538 539
f 515 537 538
f 492 536 30
f 491 535 536
f 490 534 535
f 489 533 534
f 488 532 533
f 487 531 532
f 486 530 531
f 485 529 530
f 484 528 529
f 483 527 528
f 482 526 527
f 481 525 526
f 480 524 525
f 479 523 524
f 478 522 523
f 477 521 522
f 476 520 521
f 475 519 520
f 474 518 519
f 473 517 518
f 472 516 517
f 471 515 516
f 493 449 2
f 494 450 449
f 495 451 450
f 496 452 451
f 497 453 452
f 498 454 453
f 499 455 454
f 500 456 455
f 501 457 456
f 502 458 457
f 503 459 458
f 504 460 459
f 505 461 460
f 506 462 461
f 507 463 462
f 508 464 463
f 509 465 464
f 510 466 465
f 511 467 466
f 512 468 467
f 513 469 468
f 514 470 469
f 449 492 16
f 450 491 492
f 451 490 491
f 452 489 490
f 453 488 489
f 454 487 488
f 455 486 487
f 456 485 486
f 457 484 485
f 458 483 484
f 459 482 483
f 460 481 482
f 461 480 481
f 462 479 480
f 463 478 479
f 464 477 478
f 465 476 477
f 466 475 476
f 467 474 475
f 468 473 474
f 469 472 473
f 470 471 472
